<?xml version="1.0" encoding="utf-8" standalone="no"?>
<!DOCTYPE svg PUBLIC "-//W3C//DTD SVG 1.1//EN"
  "http://www.w3.org/Graphics/SVG/1.1/DTD/svg11.dtd">
<svg xmlns:xlink="http://www.w3.org/1999/xlink" width="384.620312pt" height="177.81225pt" viewBox="0 0 384.620312 177.81225" xmlns="http://www.w3.org/2000/svg" version="1.1">
 <metadata>
  <rdf:RDF xmlns:dc="http://purl.org/dc/elements/1.1/" xmlns:cc="http://creativecommons.org/ns#" xmlns:rdf="http://www.w3.org/1999/02/22-rdf-syntax-ns#">
   <cc:Work>
    <dc:type rdf:resource="http://purl.org/dc/dcmitype/StillImage"/>
    <dc:date>2024-10-18T09:56:07.064567</dc:date>
    <dc:format>image/svg+xml</dc:format>
    <dc:creator>
     <cc:Agent>
      <dc:title>Matplotlib v3.6.0, https://matplotlib.org/</dc:title>
     </cc:Agent>
    </dc:creator>
   </cc:Work>
  </rdf:RDF>
 </metadata>
 <defs>
  <style type="text/css">*{stroke-linejoin: round; stroke-linecap: butt}</style>
 </defs>
 <g id="figure_1">
  <g id="patch_1">
   <path d="M 0 177.81225 
L 384.620312 177.81225 
L 384.620312 0 
L 0 0 
z
" style="fill: #ffffff"/>
  </g>
  <g id="axes_1">
   <g id="patch_2">
    <path d="M 42.620313 140.256 
L 377.420313 140.256 
L 377.420313 7.2 
L 42.620313 7.2 
z
" style="fill: #ffffff"/>
   </g>
   <g id="matplotlib.axis_1">
    <g id="xtick_1">
     <g id="line2d_1">
      <defs>
       <path id="mdd45a6ee53" d="M 0 0 
L 0 3.5 
" style="stroke: #000000; stroke-width: 0.8"/>
      </defs>
      <g>
       <use xlink:href="#mdd45a6ee53" x="57.838494" y="140.256" style="stroke: #000000; stroke-width: 0.8"/>
      </g>
     </g>
     <g id="text_1">
      <text style="font: 10px 'sans-serif'; text-anchor: middle" x="57.838494" y="154.854437" transform="rotate(-0 57.838494 154.854437)">0</text>
     </g>
    </g>
    <g id="xtick_2">
     <g id="line2d_2">
      <g>
       <use xlink:href="#mdd45a6ee53" x="88.274858" y="140.256" style="stroke: #000000; stroke-width: 0.8"/>
      </g>
     </g>
     <g id="text_2">
      <text style="font: 10px 'sans-serif'; text-anchor: middle" x="88.274858" y="154.854437" transform="rotate(-0 88.274858 154.854437)">5</text>
     </g>
    </g>
    <g id="xtick_3">
     <g id="line2d_3">
      <g>
       <use xlink:href="#mdd45a6ee53" x="118.711222" y="140.256" style="stroke: #000000; stroke-width: 0.8"/>
      </g>
     </g>
     <g id="text_3">
      <text style="font: 10px 'sans-serif'; text-anchor: middle" x="118.711222" y="154.854437" transform="rotate(-0 118.711222 154.854437)">10</text>
     </g>
    </g>
    <g id="xtick_4">
     <g id="line2d_4">
      <g>
       <use xlink:href="#mdd45a6ee53" x="149.147585" y="140.256" style="stroke: #000000; stroke-width: 0.8"/>
      </g>
     </g>
     <g id="text_4">
      <text style="font: 10px 'sans-serif'; text-anchor: middle" x="149.147585" y="154.854437" transform="rotate(-0 149.147585 154.854437)">15</text>
     </g>
    </g>
    <g id="xtick_5">
     <g id="line2d_5">
      <g>
       <use xlink:href="#mdd45a6ee53" x="179.583949" y="140.256" style="stroke: #000000; stroke-width: 0.8"/>
      </g>
     </g>
     <g id="text_5">
      <text style="font: 10px 'sans-serif'; text-anchor: middle" x="179.583949" y="154.854437" transform="rotate(-0 179.583949 154.854437)">20</text>
     </g>
    </g>
    <g id="xtick_6">
     <g id="line2d_6">
      <g>
       <use xlink:href="#mdd45a6ee53" x="210.020313" y="140.256" style="stroke: #000000; stroke-width: 0.8"/>
      </g>
     </g>
     <g id="text_6">
      <text style="font: 10px 'sans-serif'; text-anchor: middle" x="210.020313" y="154.854437" transform="rotate(-0 210.020313 154.854437)">25</text>
     </g>
    </g>
    <g id="xtick_7">
     <g id="line2d_7">
      <g>
       <use xlink:href="#mdd45a6ee53" x="240.456676" y="140.256" style="stroke: #000000; stroke-width: 0.8"/>
      </g>
     </g>
     <g id="text_7">
      <text style="font: 10px 'sans-serif'; text-anchor: middle" x="240.456676" y="154.854437" transform="rotate(-0 240.456676 154.854437)">30</text>
     </g>
    </g>
    <g id="xtick_8">
     <g id="line2d_8">
      <g>
       <use xlink:href="#mdd45a6ee53" x="270.89304" y="140.256" style="stroke: #000000; stroke-width: 0.8"/>
      </g>
     </g>
     <g id="text_8">
      <text style="font: 10px 'sans-serif'; text-anchor: middle" x="270.89304" y="154.854437" transform="rotate(-0 270.89304 154.854437)">35</text>
     </g>
    </g>
    <g id="xtick_9">
     <g id="line2d_9">
      <g>
       <use xlink:href="#mdd45a6ee53" x="301.329403" y="140.256" style="stroke: #000000; stroke-width: 0.8"/>
      </g>
     </g>
     <g id="text_9">
      <text style="font: 10px 'sans-serif'; text-anchor: middle" x="301.329403" y="154.854437" transform="rotate(-0 301.329403 154.854437)">40</text>
     </g>
    </g>
    <g id="xtick_10">
     <g id="line2d_10">
      <g>
       <use xlink:href="#mdd45a6ee53" x="331.765767" y="140.256" style="stroke: #000000; stroke-width: 0.8"/>
      </g>
     </g>
     <g id="text_10">
      <text style="font: 10px 'sans-serif'; text-anchor: middle" x="331.765767" y="154.854437" transform="rotate(-0 331.765767 154.854437)">45</text>
     </g>
    </g>
    <g id="xtick_11">
     <g id="line2d_11">
      <g>
       <use xlink:href="#mdd45a6ee53" x="362.202131" y="140.256" style="stroke: #000000; stroke-width: 0.8"/>
      </g>
     </g>
     <g id="text_11">
      <text style="font: 10px 'sans-serif'; text-anchor: middle" x="362.202131" y="154.854437" transform="rotate(-0 362.202131 154.854437)">50</text>
     </g>
    </g>
    <g id="text_12">
     <text style="font: 10px 'sans-serif'; text-anchor: middle" x="210.020313" y="168.532562" transform="rotate(-0 210.020313 168.532562)">Time step</text>
    </g>
   </g>
   <g id="matplotlib.axis_2">
    <g id="ytick_1">
     <g id="line2d_12">
      <defs>
       <path id="m9808d60760" d="M 0 0 
L -3.5 0 
" style="stroke: #000000; stroke-width: 0.8"/>
      </defs>
      <g>
       <use xlink:href="#m9808d60760" x="42.620313" y="139.795994" style="stroke: #000000; stroke-width: 0.8"/>
      </g>
     </g>
     <g id="text_13">
      <text style="font: 10px 'sans-serif'; text-anchor: end" x="35.620313" y="143.595213" transform="rotate(-0 35.620313 143.595213)">−2</text>
     </g>
    </g>
    <g id="ytick_2">
     <g id="line2d_13">
      <g>
       <use xlink:href="#m9808d60760" x="42.620313" y="106.21107" style="stroke: #000000; stroke-width: 0.8"/>
      </g>
     </g>
     <g id="text_14">
      <text style="font: 10px 'sans-serif'; text-anchor: end" x="35.620313" y="110.010289" transform="rotate(-0 35.620313 110.010289)">−1</text>
     </g>
    </g>
    <g id="ytick_3">
     <g id="line2d_14">
      <g>
       <use xlink:href="#m9808d60760" x="42.620313" y="72.626146" style="stroke: #000000; stroke-width: 0.8"/>
      </g>
     </g>
     <g id="text_15">
      <text style="font: 10px 'sans-serif'; text-anchor: end" x="35.620313" y="76.425365" transform="rotate(-0 35.620313 76.425365)">0</text>
     </g>
    </g>
    <g id="ytick_4">
     <g id="line2d_15">
      <g>
       <use xlink:href="#m9808d60760" x="42.620313" y="39.041222" style="stroke: #000000; stroke-width: 0.8"/>
      </g>
     </g>
     <g id="text_16">
      <text style="font: 10px 'sans-serif'; text-anchor: end" x="35.620313" y="42.840441" transform="rotate(-0 35.620313 42.840441)">1</text>
     </g>
    </g>
    <g id="text_17">
     <text style="font: 10px 'sans-serif'; text-anchor: middle" x="14.798438" y="73.728" transform="rotate(-90 14.798438 73.728)">Acceleration</text>
    </g>
   </g>
   <g id="line2d_16">
    <path d="M 57.838494 23.860836 
L 63.925767 13.248 
L 70.01304 19.99857 
L 76.100313 26.379705 
L 82.187585 32.324237 
L 88.274858 37.865749 
L 94.362131 43.004243 
L 100.449403 47.739717 
L 106.536676 52.072172 
L 112.623949 56.001609 
L 118.711222 59.494441 
L 124.798494 62.617839 
L 130.885767 65.338217 
L 136.97304 67.588407 
L 143.060313 69.502748 
L 149.147585 70.980485 
L 155.234858 72.055202 
L 161.322131 72.726901 
L 167.409403 72.99558 
L 173.496676 72.827656 
L 179.583949 72.626146 
L 185.671222 72.626146 
L 191.758494 72.626146 
L 197.845767 72.626146 
L 203.93304 72.626146 
L 210.020313 72.626146 
L 216.107585 72.626146 
L 222.194858 72.592561 
L 228.282131 72.626146 
L 234.369403 72.626146 
L 240.456676 72.626146 
L 246.543949 72.626146 
L 252.631222 72.626146 
L 258.718494 72.626146 
L 264.805767 72.626146 
L 270.89304 72.626146 
L 276.980312 72.626146 
L 283.067585 72.626146 
L 289.154858 72.626146 
L 295.242131 72.626146 
L 301.329403 72.626146 
L 307.416676 72.626146 
L 313.503949 72.626146 
L 319.591222 72.626146 
L 325.678494 72.626146 
L 331.765767 72.626146 
L 337.85304 72.626146 
L 343.940312 72.626146 
L 350.027585 72.626146 
L 356.114858 72.626146 
L 362.202131 72.626146 
" clip-path="url(#p1d6ed47386)" style="fill: none; stroke: #0065bd; stroke-width: 1.5; stroke-linecap: square"/>
    <defs>
     <path id="m2844217564" d="M 0 1.5 
C 0.397805 1.5 0.77937 1.341951 1.06066 1.06066 
C 1.341951 0.77937 1.5 0.397805 1.5 0 
C 1.5 -0.397805 1.341951 -0.77937 1.06066 -1.06066 
C 0.77937 -1.341951 0.397805 -1.5 0 -1.5 
C -0.397805 -1.5 -0.77937 -1.341951 -1.06066 -1.06066 
C -1.341951 -0.77937 -1.5 -0.397805 -1.5 0 
C -1.5 0.397805 -1.341951 0.77937 -1.06066 1.06066 
C -0.77937 1.341951 -0.397805 1.5 0 1.5 
z
" style="stroke: #0065bd"/>
    </defs>
    <g clip-path="url(#p1d6ed47386)">
     <use xlink:href="#m2844217564" x="57.838494" y="23.860836" style="fill: #0065bd; stroke: #0065bd"/>
     <use xlink:href="#m2844217564" x="63.925767" y="13.248" style="fill: #0065bd; stroke: #0065bd"/>
     <use xlink:href="#m2844217564" x="70.01304" y="19.99857" style="fill: #0065bd; stroke: #0065bd"/>
     <use xlink:href="#m2844217564" x="76.100313" y="26.379705" style="fill: #0065bd; stroke: #0065bd"/>
     <use xlink:href="#m2844217564" x="82.187585" y="32.324237" style="fill: #0065bd; stroke: #0065bd"/>
     <use xlink:href="#m2844217564" x="88.274858" y="37.865749" style="fill: #0065bd; stroke: #0065bd"/>
     <use xlink:href="#m2844217564" x="94.362131" y="43.004243" style="fill: #0065bd; stroke: #0065bd"/>
     <use xlink:href="#m2844217564" x="100.449403" y="47.739717" style="fill: #0065bd; stroke: #0065bd"/>
     <use xlink:href="#m2844217564" x="106.536676" y="52.072172" style="fill: #0065bd; stroke: #0065bd"/>
     <use xlink:href="#m2844217564" x="112.623949" y="56.001609" style="fill: #0065bd; stroke: #0065bd"/>
     <use xlink:href="#m2844217564" x="118.711222" y="59.494441" style="fill: #0065bd; stroke: #0065bd"/>
     <use xlink:href="#m2844217564" x="124.798494" y="62.617839" style="fill: #0065bd; stroke: #0065bd"/>
     <use xlink:href="#m2844217564" x="130.885767" y="65.338217" style="fill: #0065bd; stroke: #0065bd"/>
     <use xlink:href="#m2844217564" x="136.97304" y="67.588407" style="fill: #0065bd; stroke: #0065bd"/>
     <use xlink:href="#m2844217564" x="143.060313" y="69.502748" style="fill: #0065bd; stroke: #0065bd"/>
     <use xlink:href="#m2844217564" x="149.147585" y="70.980485" style="fill: #0065bd; stroke: #0065bd"/>
     <use xlink:href="#m2844217564" x="155.234858" y="72.055202" style="fill: #0065bd; stroke: #0065bd"/>
     <use xlink:href="#m2844217564" x="161.322131" y="72.726901" style="fill: #0065bd; stroke: #0065bd"/>
     <use xlink:href="#m2844217564" x="167.409403" y="72.99558" style="fill: #0065bd; stroke: #0065bd"/>
     <use xlink:href="#m2844217564" x="173.496676" y="72.827656" style="fill: #0065bd; stroke: #0065bd"/>
     <use xlink:href="#m2844217564" x="179.583949" y="72.626146" style="fill: #0065bd; stroke: #0065bd"/>
     <use xlink:href="#m2844217564" x="185.671222" y="72.626146" style="fill: #0065bd; stroke: #0065bd"/>
     <use xlink:href="#m2844217564" x="191.758494" y="72.626146" style="fill: #0065bd; stroke: #0065bd"/>
     <use xlink:href="#m2844217564" x="197.845767" y="72.626146" style="fill: #0065bd; stroke: #0065bd"/>
     <use xlink:href="#m2844217564" x="203.93304" y="72.626146" style="fill: #0065bd; stroke: #0065bd"/>
     <use xlink:href="#m2844217564" x="210.020313" y="72.626146" style="fill: #0065bd; stroke: #0065bd"/>
     <use xlink:href="#m2844217564" x="216.107585" y="72.626146" style="fill: #0065bd; stroke: #0065bd"/>
     <use xlink:href="#m2844217564" x="222.194858" y="72.592561" style="fill: #0065bd; stroke: #0065bd"/>
     <use xlink:href="#m2844217564" x="228.282131" y="72.626146" style="fill: #0065bd; stroke: #0065bd"/>
     <use xlink:href="#m2844217564" x="234.369403" y="72.626146" style="fill: #0065bd; stroke: #0065bd"/>
     <use xlink:href="#m2844217564" x="240.456676" y="72.626146" style="fill: #0065bd; stroke: #0065bd"/>
     <use xlink:href="#m2844217564" x="246.543949" y="72.626146" style="fill: #0065bd; stroke: #0065bd"/>
     <use xlink:href="#m2844217564" x="252.631222" y="72.626146" style="fill: #0065bd; stroke: #0065bd"/>
     <use xlink:href="#m2844217564" x="258.718494" y="72.626146" style="fill: #0065bd; stroke: #0065bd"/>
     <use xlink:href="#m2844217564" x="264.805767" y="72.626146" style="fill: #0065bd; stroke: #0065bd"/>
     <use xlink:href="#m2844217564" x="270.89304" y="72.626146" style="fill: #0065bd; stroke: #0065bd"/>
     <use xlink:href="#m2844217564" x="276.980312" y="72.626146" style="fill: #0065bd; stroke: #0065bd"/>
     <use xlink:href="#m2844217564" x="283.067585" y="72.626146" style="fill: #0065bd; stroke: #0065bd"/>
     <use xlink:href="#m2844217564" x="289.154858" y="72.626146" style="fill: #0065bd; stroke: #0065bd"/>
     <use xlink:href="#m2844217564" x="295.242131" y="72.626146" style="fill: #0065bd; stroke: #0065bd"/>
     <use xlink:href="#m2844217564" x="301.329403" y="72.626146" style="fill: #0065bd; stroke: #0065bd"/>
     <use xlink:href="#m2844217564" x="307.416676" y="72.626146" style="fill: #0065bd; stroke: #0065bd"/>
     <use xlink:href="#m2844217564" x="313.503949" y="72.626146" style="fill: #0065bd; stroke: #0065bd"/>
     <use xlink:href="#m2844217564" x="319.591222" y="72.626146" style="fill: #0065bd; stroke: #0065bd"/>
     <use xlink:href="#m2844217564" x="325.678494" y="72.626146" style="fill: #0065bd; stroke: #0065bd"/>
     <use xlink:href="#m2844217564" x="331.765767" y="72.626146" style="fill: #0065bd; stroke: #0065bd"/>
     <use xlink:href="#m2844217564" x="337.85304" y="72.626146" style="fill: #0065bd; stroke: #0065bd"/>
     <use xlink:href="#m2844217564" x="343.940312" y="72.626146" style="fill: #0065bd; stroke: #0065bd"/>
     <use xlink:href="#m2844217564" x="350.027585" y="72.626146" style="fill: #0065bd; stroke: #0065bd"/>
     <use xlink:href="#m2844217564" x="356.114858" y="72.626146" style="fill: #0065bd; stroke: #0065bd"/>
     <use xlink:href="#m2844217564" x="362.202131" y="72.626146" style="fill: #0065bd; stroke: #0065bd"/>
    </g>
   </g>
   <g id="line2d_17">
    <path d="M 57.838494 23.860836 
L 63.925767 13.248 
L 70.01304 19.99857 
L 76.100313 26.379705 
L 82.187585 32.324237 
L 88.274858 37.865749 
L 94.362131 43.004243 
L 100.449403 47.739717 
L 106.536676 52.072172 
L 112.623949 56.001609 
L 118.711222 59.494441 
L 124.798494 62.617839 
L 130.885767 65.338217 
L 136.97304 67.588407 
L 143.060313 69.502748 
L 149.147585 70.980485 
L 155.234858 72.055202 
L 161.322131 72.726901 
L 167.409403 72.99558 
L 173.496676 72.827656 
L 179.583949 72.626146 
L 185.671222 72.626146 
L 191.758494 72.626146 
L 197.845767 72.626146 
L 203.93304 72.626146 
L 210.020313 72.626146 
L 216.107585 72.626146 
L 222.194858 72.592561 
L 228.282131 72.626146 
L 234.369403 72.626146 
L 240.456676 72.626146 
L 246.543949 72.626146 
L 252.631222 72.626146 
L 258.718494 72.626146 
L 264.805767 72.626146 
L 270.89304 72.626146 
L 276.980312 72.626146 
L 283.067585 72.626146 
L 289.154858 72.626146 
L 295.242131 72.626146 
L 301.329403 72.626146 
L 307.416676 72.626146 
L 313.503949 72.626146 
L 319.591222 72.626146 
L 325.678494 72.626146 
L 331.765767 72.626146 
L 337.85304 72.626146 
L 343.940312 72.626146 
L 350.027585 72.626146 
L 356.114858 72.626146 
L 362.202131 72.626146 
" clip-path="url(#p1d6ed47386)" style="fill: none; stroke: #ff0000; stroke-width: 1.5; stroke-linecap: square"/>
    <defs>
     <path id="m341ea581a1" d="M 0 1.5 
C 0.397805 1.5 0.77937 1.341951 1.06066 1.06066 
C 1.341951 0.77937 1.5 0.397805 1.5 0 
C 1.5 -0.397805 1.341951 -0.77937 1.06066 -1.06066 
C 0.77937 -1.341951 0.397805 -1.5 0 -1.5 
C -0.397805 -1.5 -0.77937 -1.341951 -1.06066 -1.06066 
C -1.341951 -0.77937 -1.5 -0.397805 -1.5 0 
C -1.5 0.397805 -1.341951 0.77937 -1.06066 1.06066 
C -0.77937 1.341951 -0.397805 1.5 0 1.5 
z
" style="stroke: #ff0000"/>
    </defs>
    <g clip-path="url(#p1d6ed47386)">
     <use xlink:href="#m341ea581a1" x="57.838494" y="23.860836" style="fill: #ff0000; stroke: #ff0000"/>
     <use xlink:href="#m341ea581a1" x="63.925767" y="13.248" style="fill: #ff0000; stroke: #ff0000"/>
     <use xlink:href="#m341ea581a1" x="70.01304" y="19.99857" style="fill: #ff0000; stroke: #ff0000"/>
     <use xlink:href="#m341ea581a1" x="76.100313" y="26.379705" style="fill: #ff0000; stroke: #ff0000"/>
     <use xlink:href="#m341ea581a1" x="82.187585" y="32.324237" style="fill: #ff0000; stroke: #ff0000"/>
     <use xlink:href="#m341ea581a1" x="88.274858" y="37.865749" style="fill: #ff0000; stroke: #ff0000"/>
     <use xlink:href="#m341ea581a1" x="94.362131" y="43.004243" style="fill: #ff0000; stroke: #ff0000"/>
     <use xlink:href="#m341ea581a1" x="100.449403" y="47.739717" style="fill: #ff0000; stroke: #ff0000"/>
     <use xlink:href="#m341ea581a1" x="106.536676" y="52.072172" style="fill: #ff0000; stroke: #ff0000"/>
     <use xlink:href="#m341ea581a1" x="112.623949" y="56.001609" style="fill: #ff0000; stroke: #ff0000"/>
     <use xlink:href="#m341ea581a1" x="118.711222" y="59.494441" style="fill: #ff0000; stroke: #ff0000"/>
     <use xlink:href="#m341ea581a1" x="124.798494" y="62.617839" style="fill: #ff0000; stroke: #ff0000"/>
     <use xlink:href="#m341ea581a1" x="130.885767" y="65.338217" style="fill: #ff0000; stroke: #ff0000"/>
     <use xlink:href="#m341ea581a1" x="136.97304" y="67.588407" style="fill: #ff0000; stroke: #ff0000"/>
     <use xlink:href="#m341ea581a1" x="143.060313" y="69.502748" style="fill: #ff0000; stroke: #ff0000"/>
     <use xlink:href="#m341ea581a1" x="149.147585" y="70.980485" style="fill: #ff0000; stroke: #ff0000"/>
     <use xlink:href="#m341ea581a1" x="155.234858" y="72.055202" style="fill: #ff0000; stroke: #ff0000"/>
     <use xlink:href="#m341ea581a1" x="161.322131" y="72.726901" style="fill: #ff0000; stroke: #ff0000"/>
     <use xlink:href="#m341ea581a1" x="167.409403" y="72.99558" style="fill: #ff0000; stroke: #ff0000"/>
     <use xlink:href="#m341ea581a1" x="173.496676" y="72.827656" style="fill: #ff0000; stroke: #ff0000"/>
     <use xlink:href="#m341ea581a1" x="179.583949" y="72.626146" style="fill: #ff0000; stroke: #ff0000"/>
     <use xlink:href="#m341ea581a1" x="185.671222" y="72.626146" style="fill: #ff0000; stroke: #ff0000"/>
     <use xlink:href="#m341ea581a1" x="191.758494" y="72.626146" style="fill: #ff0000; stroke: #ff0000"/>
     <use xlink:href="#m341ea581a1" x="197.845767" y="72.626146" style="fill: #ff0000; stroke: #ff0000"/>
     <use xlink:href="#m341ea581a1" x="203.93304" y="72.626146" style="fill: #ff0000; stroke: #ff0000"/>
     <use xlink:href="#m341ea581a1" x="210.020313" y="72.626146" style="fill: #ff0000; stroke: #ff0000"/>
     <use xlink:href="#m341ea581a1" x="216.107585" y="72.626146" style="fill: #ff0000; stroke: #ff0000"/>
     <use xlink:href="#m341ea581a1" x="222.194858" y="72.592561" style="fill: #ff0000; stroke: #ff0000"/>
     <use xlink:href="#m341ea581a1" x="228.282131" y="72.626146" style="fill: #ff0000; stroke: #ff0000"/>
     <use xlink:href="#m341ea581a1" x="234.369403" y="72.626146" style="fill: #ff0000; stroke: #ff0000"/>
     <use xlink:href="#m341ea581a1" x="240.456676" y="72.626146" style="fill: #ff0000; stroke: #ff0000"/>
     <use xlink:href="#m341ea581a1" x="246.543949" y="72.626146" style="fill: #ff0000; stroke: #ff0000"/>
     <use xlink:href="#m341ea581a1" x="252.631222" y="72.626146" style="fill: #ff0000; stroke: #ff0000"/>
     <use xlink:href="#m341ea581a1" x="258.718494" y="72.626146" style="fill: #ff0000; stroke: #ff0000"/>
     <use xlink:href="#m341ea581a1" x="264.805767" y="72.626146" style="fill: #ff0000; stroke: #ff0000"/>
     <use xlink:href="#m341ea581a1" x="270.89304" y="72.626146" style="fill: #ff0000; stroke: #ff0000"/>
     <use xlink:href="#m341ea581a1" x="276.980312" y="72.626146" style="fill: #ff0000; stroke: #ff0000"/>
     <use xlink:href="#m341ea581a1" x="283.067585" y="72.626146" style="fill: #ff0000; stroke: #ff0000"/>
     <use xlink:href="#m341ea581a1" x="289.154858" y="72.626146" style="fill: #ff0000; stroke: #ff0000"/>
     <use xlink:href="#m341ea581a1" x="295.242131" y="72.626146" style="fill: #ff0000; stroke: #ff0000"/>
     <use xlink:href="#m341ea581a1" x="301.329403" y="72.626146" style="fill: #ff0000; stroke: #ff0000"/>
     <use xlink:href="#m341ea581a1" x="307.416676" y="72.626146" style="fill: #ff0000; stroke: #ff0000"/>
     <use xlink:href="#m341ea581a1" x="313.503949" y="72.626146" style="fill: #ff0000; stroke: #ff0000"/>
     <use xlink:href="#m341ea581a1" x="319.591222" y="72.626146" style="fill: #ff0000; stroke: #ff0000"/>
     <use xlink:href="#m341ea581a1" x="325.678494" y="72.626146" style="fill: #ff0000; stroke: #ff0000"/>
     <use xlink:href="#m341ea581a1" x="331.765767" y="72.626146" style="fill: #ff0000; stroke: #ff0000"/>
     <use xlink:href="#m341ea581a1" x="337.85304" y="72.626146" style="fill: #ff0000; stroke: #ff0000"/>
     <use xlink:href="#m341ea581a1" x="343.940312" y="72.626146" style="fill: #ff0000; stroke: #ff0000"/>
     <use xlink:href="#m341ea581a1" x="350.027585" y="72.626146" style="fill: #ff0000; stroke: #ff0000"/>
     <use xlink:href="#m341ea581a1" x="356.114858" y="72.626146" style="fill: #ff0000; stroke: #ff0000"/>
     <use xlink:href="#m341ea581a1" x="362.202131" y="72.626146" style="fill: #ff0000; stroke: #ff0000"/>
    </g>
   </g>
   <g id="line2d_18">
    <path d="M 57.838494 23.860836 
L 63.925767 27.219328 
L 70.01304 33.936313 
L 76.100313 40.653298 
L 82.187585 47.370283 
L 88.274858 54.087268 
L 94.362131 60.804253 
L 100.449403 67.521238 
L 106.536676 74.238222 
L 112.623949 80.955207 
L 118.711222 87.672192 
L 124.798494 94.389177 
L 130.885767 101.106162 
L 136.97304 107.823147 
L 143.060313 114.540131 
L 149.147585 121.257116 
L 155.234858 127.974101 
L 161.322131 134.208 
L 167.409403 133.724914 
L 173.496676 127.007929 
L 179.583949 120.290944 
L 185.671222 113.573959 
L 191.758494 106.856975 
L 197.845767 100.13999 
L 203.93304 93.423005 
L 210.020313 86.70602 
L 216.107585 79.989035 
L 222.194858 73.27205 
L 228.282131 72.290826 
L 234.369403 73.321523 
L 240.456676 72.430212 
L 246.543949 72.714505 
L 252.631222 72.601197 
L 258.718494 72.637578 
L 264.805767 72.622966 
L 270.89304 72.627421 
L 276.980312 72.625804 
L 283.067585 72.626238 
L 289.154858 72.626121 
L 295.242131 72.626153 
L 301.329403 72.626144 
L 307.416676 72.626147 
L 313.503949 72.626146 
L 319.591222 72.626147 
L 325.678494 72.626142 
L 331.765767 72.626161 
L 337.85304 72.626093 
L 343.940312 72.626349 
L 350.027585 72.62539 
L 356.114858 72.628974 
L 362.202131 72.609119 
" clip-path="url(#p1d6ed47386)" style="fill: none; stroke: #a2ad00; stroke-width: 1.5; stroke-linecap: square"/>
    <defs>
     <path id="m1b91eb71aa" d="M 0 1.5 
C 0.397805 1.5 0.77937 1.341951 1.06066 1.06066 
C 1.341951 0.77937 1.5 0.397805 1.5 0 
C 1.5 -0.397805 1.341951 -0.77937 1.06066 -1.06066 
C 0.77937 -1.341951 0.397805 -1.5 0 -1.5 
C -0.397805 -1.5 -0.77937 -1.341951 -1.06066 -1.06066 
C -1.341951 -0.77937 -1.5 -0.397805 -1.5 0 
C -1.5 0.397805 -1.341951 0.77937 -1.06066 1.06066 
C -0.77937 1.341951 -0.397805 1.5 0 1.5 
z
" style="stroke: #a2ad00"/>
    </defs>
    <g clip-path="url(#p1d6ed47386)">
     <use xlink:href="#m1b91eb71aa" x="57.838494" y="23.860836" style="fill: #a2ad00; stroke: #a2ad00"/>
     <use xlink:href="#m1b91eb71aa" x="63.925767" y="27.219328" style="fill: #a2ad00; stroke: #a2ad00"/>
     <use xlink:href="#m1b91eb71aa" x="70.01304" y="33.936313" style="fill: #a2ad00; stroke: #a2ad00"/>
     <use xlink:href="#m1b91eb71aa" x="76.100313" y="40.653298" style="fill: #a2ad00; stroke: #a2ad00"/>
     <use xlink:href="#m1b91eb71aa" x="82.187585" y="47.370283" style="fill: #a2ad00; stroke: #a2ad00"/>
     <use xlink:href="#m1b91eb71aa" x="88.274858" y="54.087268" style="fill: #a2ad00; stroke: #a2ad00"/>
     <use xlink:href="#m1b91eb71aa" x="94.362131" y="60.804253" style="fill: #a2ad00; stroke: #a2ad00"/>
     <use xlink:href="#m1b91eb71aa" x="100.449403" y="67.521238" style="fill: #a2ad00; stroke: #a2ad00"/>
     <use xlink:href="#m1b91eb71aa" x="106.536676" y="74.238222" style="fill: #a2ad00; stroke: #a2ad00"/>
     <use xlink:href="#m1b91eb71aa" x="112.623949" y="80.955207" style="fill: #a2ad00; stroke: #a2ad00"/>
     <use xlink:href="#m1b91eb71aa" x="118.711222" y="87.672192" style="fill: #a2ad00; stroke: #a2ad00"/>
     <use xlink:href="#m1b91eb71aa" x="124.798494" y="94.389177" style="fill: #a2ad00; stroke: #a2ad00"/>
     <use xlink:href="#m1b91eb71aa" x="130.885767" y="101.106162" style="fill: #a2ad00; stroke: #a2ad00"/>
     <use xlink:href="#m1b91eb71aa" x="136.97304" y="107.823147" style="fill: #a2ad00; stroke: #a2ad00"/>
     <use xlink:href="#m1b91eb71aa" x="143.060313" y="114.540131" style="fill: #a2ad00; stroke: #a2ad00"/>
     <use xlink:href="#m1b91eb71aa" x="149.147585" y="121.257116" style="fill: #a2ad00; stroke: #a2ad00"/>
     <use xlink:href="#m1b91eb71aa" x="155.234858" y="127.974101" style="fill: #a2ad00; stroke: #a2ad00"/>
     <use xlink:href="#m1b91eb71aa" x="161.322131" y="134.208" style="fill: #a2ad00; stroke: #a2ad00"/>
     <use xlink:href="#m1b91eb71aa" x="167.409403" y="133.724914" style="fill: #a2ad00; stroke: #a2ad00"/>
     <use xlink:href="#m1b91eb71aa" x="173.496676" y="127.007929" style="fill: #a2ad00; stroke: #a2ad00"/>
     <use xlink:href="#m1b91eb71aa" x="179.583949" y="120.290944" style="fill: #a2ad00; stroke: #a2ad00"/>
     <use xlink:href="#m1b91eb71aa" x="185.671222" y="113.573959" style="fill: #a2ad00; stroke: #a2ad00"/>
     <use xlink:href="#m1b91eb71aa" x="191.758494" y="106.856975" style="fill: #a2ad00; stroke: #a2ad00"/>
     <use xlink:href="#m1b91eb71aa" x="197.845767" y="100.13999" style="fill: #a2ad00; stroke: #a2ad00"/>
     <use xlink:href="#m1b91eb71aa" x="203.93304" y="93.423005" style="fill: #a2ad00; stroke: #a2ad00"/>
     <use xlink:href="#m1b91eb71aa" x="210.020313" y="86.70602" style="fill: #a2ad00; stroke: #a2ad00"/>
     <use xlink:href="#m1b91eb71aa" x="216.107585" y="79.989035" style="fill: #a2ad00; stroke: #a2ad00"/>
     <use xlink:href="#m1b91eb71aa" x="222.194858" y="73.27205" style="fill: #a2ad00; stroke: #a2ad00"/>
     <use xlink:href="#m1b91eb71aa" x="228.282131" y="72.290826" style="fill: #a2ad00; stroke: #a2ad00"/>
     <use xlink:href="#m1b91eb71aa" x="234.369403" y="73.321523" style="fill: #a2ad00; stroke: #a2ad00"/>
     <use xlink:href="#m1b91eb71aa" x="240.456676" y="72.430212" style="fill: #a2ad00; stroke: #a2ad00"/>
     <use xlink:href="#m1b91eb71aa" x="246.543949" y="72.714505" style="fill: #a2ad00; stroke: #a2ad00"/>
     <use xlink:href="#m1b91eb71aa" x="252.631222" y="72.601197" style="fill: #a2ad00; stroke: #a2ad00"/>
     <use xlink:href="#m1b91eb71aa" x="258.718494" y="72.637578" style="fill: #a2ad00; stroke: #a2ad00"/>
     <use xlink:href="#m1b91eb71aa" x="264.805767" y="72.622966" style="fill: #a2ad00; stroke: #a2ad00"/>
     <use xlink:href="#m1b91eb71aa" x="270.89304" y="72.627421" style="fill: #a2ad00; stroke: #a2ad00"/>
     <use xlink:href="#m1b91eb71aa" x="276.980312" y="72.625804" style="fill: #a2ad00; stroke: #a2ad00"/>
     <use xlink:href="#m1b91eb71aa" x="283.067585" y="72.626238" style="fill: #a2ad00; stroke: #a2ad00"/>
     <use xlink:href="#m1b91eb71aa" x="289.154858" y="72.626121" style="fill: #a2ad00; stroke: #a2ad00"/>
     <use xlink:href="#m1b91eb71aa" x="295.242131" y="72.626153" style="fill: #a2ad00; stroke: #a2ad00"/>
     <use xlink:href="#m1b91eb71aa" x="301.329403" y="72.626144" style="fill: #a2ad00; stroke: #a2ad00"/>
     <use xlink:href="#m1b91eb71aa" x="307.416676" y="72.626147" style="fill: #a2ad00; stroke: #a2ad00"/>
     <use xlink:href="#m1b91eb71aa" x="313.503949" y="72.626146" style="fill: #a2ad00; stroke: #a2ad00"/>
     <use xlink:href="#m1b91eb71aa" x="319.591222" y="72.626147" style="fill: #a2ad00; stroke: #a2ad00"/>
     <use xlink:href="#m1b91eb71aa" x="325.678494" y="72.626142" style="fill: #a2ad00; stroke: #a2ad00"/>
     <use xlink:href="#m1b91eb71aa" x="331.765767" y="72.626161" style="fill: #a2ad00; stroke: #a2ad00"/>
     <use xlink:href="#m1b91eb71aa" x="337.85304" y="72.626093" style="fill: #a2ad00; stroke: #a2ad00"/>
     <use xlink:href="#m1b91eb71aa" x="343.940312" y="72.626349" style="fill: #a2ad00; stroke: #a2ad00"/>
     <use xlink:href="#m1b91eb71aa" x="350.027585" y="72.62539" style="fill: #a2ad00; stroke: #a2ad00"/>
     <use xlink:href="#m1b91eb71aa" x="356.114858" y="72.628974" style="fill: #a2ad00; stroke: #a2ad00"/>
     <use xlink:href="#m1b91eb71aa" x="362.202131" y="72.609119" style="fill: #a2ad00; stroke: #a2ad00"/>
    </g>
   </g>
   <g id="patch_3">
    <path d="M 42.620313 140.256 
L 42.620313 7.2 
" style="fill: none; stroke: #000000; stroke-width: 0.8; stroke-linejoin: miter; stroke-linecap: square"/>
   </g>
   <g id="patch_4">
    <path d="M 377.420313 140.256 
L 377.420313 7.2 
" style="fill: none; stroke: #000000; stroke-width: 0.8; stroke-linejoin: miter; stroke-linecap: square"/>
   </g>
   <g id="patch_5">
    <path d="M 42.620313 140.256 
L 377.420312 140.256 
" style="fill: none; stroke: #000000; stroke-width: 0.8; stroke-linejoin: miter; stroke-linecap: square"/>
   </g>
   <g id="patch_6">
    <path d="M 42.620313 7.2 
L 377.420312 7.2 
" style="fill: none; stroke: #000000; stroke-width: 0.8; stroke-linejoin: miter; stroke-linecap: square"/>
   </g>
  </g>
 </g>
 <defs>
  <clipPath id="p1d6ed47386">
   <rect x="42.620313" y="7.2" width="334.8" height="133.056"/>
  </clipPath>
 </defs>
</svg>
