<?xml version="1.0" encoding="utf-8" standalone="no"?>
<!DOCTYPE svg PUBLIC "-//W3C//DTD SVG 1.1//EN"
  "http://www.w3.org/Graphics/SVG/1.1/DTD/svg11.dtd">
<svg xmlns:xlink="http://www.w3.org/1999/xlink" width="376.240625pt" height="177.81225pt" viewBox="0 0 376.240625 177.81225" xmlns="http://www.w3.org/2000/svg" version="1.1">
 <metadata>
  <rdf:RDF xmlns:dc="http://purl.org/dc/elements/1.1/" xmlns:cc="http://creativecommons.org/ns#" xmlns:rdf="http://www.w3.org/1999/02/22-rdf-syntax-ns#">
   <cc:Work>
    <dc:type rdf:resource="http://purl.org/dc/dcmitype/StillImage"/>
    <dc:date>2024-10-17T17:51:33.320327</dc:date>
    <dc:format>image/svg+xml</dc:format>
    <dc:creator>
     <cc:Agent>
      <dc:title>Matplotlib v3.6.0, https://matplotlib.org/</dc:title>
     </cc:Agent>
    </dc:creator>
   </cc:Work>
  </rdf:RDF>
 </metadata>
 <defs>
  <style type="text/css">*{stroke-linejoin: round; stroke-linecap: butt}</style>
 </defs>
 <g id="figure_1">
  <g id="patch_1">
   <path d="M 0 177.81225 
L 376.240625 177.81225 
L 376.240625 0 
L 0 0 
z
" style="fill: #ffffff"/>
  </g>
  <g id="axes_1">
   <g id="patch_2">
    <path d="M 34.240625 140.256 
L 369.040625 140.256 
L 369.040625 7.2 
L 34.240625 7.2 
z
" style="fill: #ffffff"/>
   </g>
   <g id="matplotlib.axis_1">
    <g id="xtick_1">
     <g id="line2d_1">
      <defs>
       <path id="m76bf156be2" d="M 0 0 
L 0 3.5 
" style="stroke: #000000; stroke-width: 0.8"/>
      </defs>
      <g>
       <use xlink:href="#m76bf156be2" x="34.240625" y="140.256" style="stroke: #000000; stroke-width: 0.8"/>
      </g>
     </g>
     <g id="text_1">
      <text style="font: 10px 'sans-serif'; text-anchor: middle" x="34.240625" y="154.854437" transform="rotate(-0 34.240625 154.854437)">0</text>
     </g>
    </g>
    <g id="xtick_2">
     <g id="line2d_2">
      <g>
       <use xlink:href="#m76bf156be2" x="99.887684" y="140.256" style="stroke: #000000; stroke-width: 0.8"/>
      </g>
     </g>
     <g id="text_2">
      <text style="font: 10px 'sans-serif'; text-anchor: middle" x="99.887684" y="154.854437" transform="rotate(-0 99.887684 154.854437)">10</text>
     </g>
    </g>
    <g id="xtick_3">
     <g id="line2d_3">
      <g>
       <use xlink:href="#m76bf156be2" x="165.534743" y="140.256" style="stroke: #000000; stroke-width: 0.8"/>
      </g>
     </g>
     <g id="text_3">
      <text style="font: 10px 'sans-serif'; text-anchor: middle" x="165.534743" y="154.854437" transform="rotate(-0 165.534743 154.854437)">20</text>
     </g>
    </g>
    <g id="xtick_4">
     <g id="line2d_4">
      <g>
       <use xlink:href="#m76bf156be2" x="231.181801" y="140.256" style="stroke: #000000; stroke-width: 0.8"/>
      </g>
     </g>
     <g id="text_4">
      <text style="font: 10px 'sans-serif'; text-anchor: middle" x="231.181801" y="154.854437" transform="rotate(-0 231.181801 154.854437)">30</text>
     </g>
    </g>
    <g id="xtick_5">
     <g id="line2d_5">
      <g>
       <use xlink:href="#m76bf156be2" x="296.82886" y="140.256" style="stroke: #000000; stroke-width: 0.8"/>
      </g>
     </g>
     <g id="text_5">
      <text style="font: 10px 'sans-serif'; text-anchor: middle" x="296.82886" y="154.854437" transform="rotate(-0 296.82886 154.854437)">40</text>
     </g>
    </g>
    <g id="xtick_6">
     <g id="line2d_6">
      <g>
       <use xlink:href="#m76bf156be2" x="362.475919" y="140.256" style="stroke: #000000; stroke-width: 0.8"/>
      </g>
     </g>
     <g id="text_6">
      <text style="font: 10px 'sans-serif'; text-anchor: middle" x="362.475919" y="154.854437" transform="rotate(-0 362.475919 154.854437)">50</text>
     </g>
    </g>
    <g id="text_7">
     <text style="font: 10px 'sans-serif'; text-anchor: middle" x="201.640625" y="168.532562" transform="rotate(-0 201.640625 168.532562)">Time step</text>
    </g>
   </g>
   <g id="matplotlib.axis_2">
    <g id="ytick_1">
     <g id="line2d_7">
      <defs>
       <path id="m0a199fd66b" d="M 0 0 
L -3.5 0 
" style="stroke: #000000; stroke-width: 0.8"/>
      </defs>
      <g>
       <use xlink:href="#m0a199fd66b" x="34.240625" y="134.208" style="stroke: #000000; stroke-width: 0.8"/>
      </g>
     </g>
     <g id="text_8">
      <text style="font: 10px 'sans-serif'; text-anchor: end" x="27.240625" y="138.007219" transform="rotate(-0 27.240625 138.007219)">0</text>
     </g>
    </g>
    <g id="ytick_2">
     <g id="line2d_8">
      <g>
       <use xlink:href="#m0a199fd66b" x="34.240625" y="99.459763" style="stroke: #000000; stroke-width: 0.8"/>
      </g>
     </g>
     <g id="text_9">
      <text style="font: 10px 'sans-serif'; text-anchor: end" x="27.240625" y="103.258982" transform="rotate(-0 27.240625 103.258982)">1</text>
     </g>
    </g>
    <g id="ytick_3">
     <g id="line2d_9">
      <g>
       <use xlink:href="#m0a199fd66b" x="34.240625" y="64.711526" style="stroke: #000000; stroke-width: 0.8"/>
      </g>
     </g>
     <g id="text_10">
      <text style="font: 10px 'sans-serif'; text-anchor: end" x="27.240625" y="68.510744" transform="rotate(-0 27.240625 68.510744)">2</text>
     </g>
    </g>
    <g id="ytick_4">
     <g id="line2d_10">
      <g>
       <use xlink:href="#m0a199fd66b" x="34.240625" y="29.963288" style="stroke: #000000; stroke-width: 0.8"/>
      </g>
     </g>
     <g id="text_11">
      <text style="font: 10px 'sans-serif'; text-anchor: end" x="27.240625" y="33.762507" transform="rotate(-0 27.240625 33.762507)">3</text>
     </g>
    </g>
    <g id="text_12">
     <text style="font: 10px 'sans-serif'; text-anchor: middle" x="14.798437" y="73.728" transform="rotate(-90 14.798437 73.728)">Velocity</text>
    </g>
   </g>
   <g id="line2d_11">
    <path d="M 34.240625 134.208 
L 369.040625 134.208 
" clip-path="url(#pb10a3ffb9f)" style="fill: none; stroke-dasharray: 3.7,1.6; stroke-dashoffset: 0; stroke: #1f77b4"/>
   </g>
   <g id="line2d_12">
    <path d="M 34.240625 42.986928 
L 40.805331 43.160669 
L 47.370037 43.403906 
L 53.934743 43.63672 
L 60.499449 43.859108 
L 67.064154 44.074547 
L 73.62886 44.283037 
L 80.193566 44.477627 
L 86.758272 44.668742 
L 93.322978 44.849433 
L 99.887684 45.019699 
L 106.45239 45.186491 
L 113.017096 45.339383 
L 119.581801 45.488801 
L 126.146507 45.627794 
L 132.711213 45.759837 
L 139.275919 45.884931 
L 145.840625 46.003075 
L 152.405331 46.114269 
L 158.970037 46.215039 
L 165.534743 46.312334 
L 172.099449 46.406154 
L 178.664154 46.48955 
L 185.22886 46.569471 
L 191.793566 46.645917 
L 198.358272 46.715413 
L 204.922978 46.77796 
L 211.487684 46.837032 
L 218.05239 46.896104 
L 224.617096 46.944752 
L 231.181801 46.993399 
L 237.746507 47.038572 
L 244.311213 47.076795 
L 250.875919 47.115018 
L 257.440625 47.149766 
L 264.005331 47.177565 
L 270.570037 47.205364 
L 277.134743 47.229687 
L 283.699449 47.250536 
L 290.264154 47.26791 
L 296.82886 47.285285 
L 303.393566 47.299184 
L 309.958272 47.309608 
L 316.522978 47.316558 
L 323.087684 47.326982 
L 329.65239 47.330457 
L 336.217096 47.333932 
L 342.781801 47.337407 
L 349.346507 47.337407 
L 355.911213 47.337407 
L 362.475919 47.340882 
" clip-path="url(#pb10a3ffb9f)" style="fill: none; stroke: #0065bd; stroke-width: 1.5; stroke-linecap: square"/>
    <defs>
     <path id="m99fe5706e3" d="M 0 1.5 
C 0.397805 1.5 0.77937 1.341951 1.06066 1.06066 
C 1.341951 0.77937 1.5 0.397805 1.5 0 
C 1.5 -0.397805 1.341951 -0.77937 1.06066 -1.06066 
C 0.77937 -1.341951 0.397805 -1.5 0 -1.5 
C -0.397805 -1.5 -0.77937 -1.341951 -1.06066 -1.06066 
C -1.341951 -0.77937 -1.5 -0.397805 -1.5 0 
C -1.5 0.397805 -1.341951 0.77937 -1.06066 1.06066 
C -0.77937 1.341951 -0.397805 1.5 0 1.5 
z
" style="stroke: #0065bd"/>
    </defs>
    <g clip-path="url(#pb10a3ffb9f)">
     <use xlink:href="#m99fe5706e3" x="34.240625" y="42.986928" style="fill: #0065bd; stroke: #0065bd"/>
     <use xlink:href="#m99fe5706e3" x="40.805331" y="43.160669" style="fill: #0065bd; stroke: #0065bd"/>
     <use xlink:href="#m99fe5706e3" x="47.370037" y="43.403906" style="fill: #0065bd; stroke: #0065bd"/>
     <use xlink:href="#m99fe5706e3" x="53.934743" y="43.63672" style="fill: #0065bd; stroke: #0065bd"/>
     <use xlink:href="#m99fe5706e3" x="60.499449" y="43.859108" style="fill: #0065bd; stroke: #0065bd"/>
     <use xlink:href="#m99fe5706e3" x="67.064154" y="44.074547" style="fill: #0065bd; stroke: #0065bd"/>
     <use xlink:href="#m99fe5706e3" x="73.62886" y="44.283037" style="fill: #0065bd; stroke: #0065bd"/>
     <use xlink:href="#m99fe5706e3" x="80.193566" y="44.477627" style="fill: #0065bd; stroke: #0065bd"/>
     <use xlink:href="#m99fe5706e3" x="86.758272" y="44.668742" style="fill: #0065bd; stroke: #0065bd"/>
     <use xlink:href="#m99fe5706e3" x="93.322978" y="44.849433" style="fill: #0065bd; stroke: #0065bd"/>
     <use xlink:href="#m99fe5706e3" x="99.887684" y="45.019699" style="fill: #0065bd; stroke: #0065bd"/>
     <use xlink:href="#m99fe5706e3" x="106.45239" y="45.186491" style="fill: #0065bd; stroke: #0065bd"/>
     <use xlink:href="#m99fe5706e3" x="113.017096" y="45.339383" style="fill: #0065bd; stroke: #0065bd"/>
     <use xlink:href="#m99fe5706e3" x="119.581801" y="45.488801" style="fill: #0065bd; stroke: #0065bd"/>
     <use xlink:href="#m99fe5706e3" x="126.146507" y="45.627794" style="fill: #0065bd; stroke: #0065bd"/>
     <use xlink:href="#m99fe5706e3" x="132.711213" y="45.759837" style="fill: #0065bd; stroke: #0065bd"/>
     <use xlink:href="#m99fe5706e3" x="139.275919" y="45.884931" style="fill: #0065bd; stroke: #0065bd"/>
     <use xlink:href="#m99fe5706e3" x="145.840625" y="46.003075" style="fill: #0065bd; stroke: #0065bd"/>
     <use xlink:href="#m99fe5706e3" x="152.405331" y="46.114269" style="fill: #0065bd; stroke: #0065bd"/>
     <use xlink:href="#m99fe5706e3" x="158.970037" y="46.215039" style="fill: #0065bd; stroke: #0065bd"/>
     <use xlink:href="#m99fe5706e3" x="165.534743" y="46.312334" style="fill: #0065bd; stroke: #0065bd"/>
     <use xlink:href="#m99fe5706e3" x="172.099449" y="46.406154" style="fill: #0065bd; stroke: #0065bd"/>
     <use xlink:href="#m99fe5706e3" x="178.664154" y="46.48955" style="fill: #0065bd; stroke: #0065bd"/>
     <use xlink:href="#m99fe5706e3" x="185.22886" y="46.569471" style="fill: #0065bd; stroke: #0065bd"/>
     <use xlink:href="#m99fe5706e3" x="191.793566" y="46.645917" style="fill: #0065bd; stroke: #0065bd"/>
     <use xlink:href="#m99fe5706e3" x="198.358272" y="46.715413" style="fill: #0065bd; stroke: #0065bd"/>
     <use xlink:href="#m99fe5706e3" x="204.922978" y="46.77796" style="fill: #0065bd; stroke: #0065bd"/>
     <use xlink:href="#m99fe5706e3" x="211.487684" y="46.837032" style="fill: #0065bd; stroke: #0065bd"/>
     <use xlink:href="#m99fe5706e3" x="218.05239" y="46.896104" style="fill: #0065bd; stroke: #0065bd"/>
     <use xlink:href="#m99fe5706e3" x="224.617096" y="46.944752" style="fill: #0065bd; stroke: #0065bd"/>
     <use xlink:href="#m99fe5706e3" x="231.181801" y="46.993399" style="fill: #0065bd; stroke: #0065bd"/>
     <use xlink:href="#m99fe5706e3" x="237.746507" y="47.038572" style="fill: #0065bd; stroke: #0065bd"/>
     <use xlink:href="#m99fe5706e3" x="244.311213" y="47.076795" style="fill: #0065bd; stroke: #0065bd"/>
     <use xlink:href="#m99fe5706e3" x="250.875919" y="47.115018" style="fill: #0065bd; stroke: #0065bd"/>
     <use xlink:href="#m99fe5706e3" x="257.440625" y="47.149766" style="fill: #0065bd; stroke: #0065bd"/>
     <use xlink:href="#m99fe5706e3" x="264.005331" y="47.177565" style="fill: #0065bd; stroke: #0065bd"/>
     <use xlink:href="#m99fe5706e3" x="270.570037" y="47.205364" style="fill: #0065bd; stroke: #0065bd"/>
     <use xlink:href="#m99fe5706e3" x="277.134743" y="47.229687" style="fill: #0065bd; stroke: #0065bd"/>
     <use xlink:href="#m99fe5706e3" x="283.699449" y="47.250536" style="fill: #0065bd; stroke: #0065bd"/>
     <use xlink:href="#m99fe5706e3" x="290.264154" y="47.26791" style="fill: #0065bd; stroke: #0065bd"/>
     <use xlink:href="#m99fe5706e3" x="296.82886" y="47.285285" style="fill: #0065bd; stroke: #0065bd"/>
     <use xlink:href="#m99fe5706e3" x="303.393566" y="47.299184" style="fill: #0065bd; stroke: #0065bd"/>
     <use xlink:href="#m99fe5706e3" x="309.958272" y="47.309608" style="fill: #0065bd; stroke: #0065bd"/>
     <use xlink:href="#m99fe5706e3" x="316.522978" y="47.316558" style="fill: #0065bd; stroke: #0065bd"/>
     <use xlink:href="#m99fe5706e3" x="323.087684" y="47.326982" style="fill: #0065bd; stroke: #0065bd"/>
     <use xlink:href="#m99fe5706e3" x="329.65239" y="47.330457" style="fill: #0065bd; stroke: #0065bd"/>
     <use xlink:href="#m99fe5706e3" x="336.217096" y="47.333932" style="fill: #0065bd; stroke: #0065bd"/>
     <use xlink:href="#m99fe5706e3" x="342.781801" y="47.337407" style="fill: #0065bd; stroke: #0065bd"/>
     <use xlink:href="#m99fe5706e3" x="349.346507" y="47.337407" style="fill: #0065bd; stroke: #0065bd"/>
     <use xlink:href="#m99fe5706e3" x="355.911213" y="47.337407" style="fill: #0065bd; stroke: #0065bd"/>
     <use xlink:href="#m99fe5706e3" x="362.475919" y="47.340882" style="fill: #0065bd; stroke: #0065bd"/>
    </g>
   </g>
   <g id="line2d_13">
    <path d="M 99.887684 45.019699 
L 106.45239 45.186491 
L 113.017096 45.339383 
L 119.581801 45.488801 
L 126.146507 45.627794 
L 132.711213 45.759837 
L 139.275919 45.884931 
L 145.840625 46.003075 
L 152.405331 46.114269 
L 158.970037 46.215039 
L 165.534743 46.312334 
L 172.099449 46.406154 
L 178.664154 46.48955 
L 185.22886 46.569471 
L 191.793566 46.645917 
L 198.358272 46.715413 
L 204.922978 46.77796 
L 211.487684 46.837032 
L 218.05239 46.896104 
L 224.617096 46.944752 
L 231.181801 46.993399 
L 237.746507 47.038572 
L 244.311213 47.076795 
L 250.875919 47.115018 
L 257.440625 47.149766 
L 264.005331 47.177565 
L 270.570037 47.205364 
L 277.134743 47.229687 
L 283.699449 47.250536 
L 290.264154 47.26791 
L 296.82886 47.285285 
L 303.393566 47.299184 
L 309.958272 47.309608 
L 316.522978 47.316558 
L 323.087684 47.326982 
L 329.65239 47.330457 
L 336.217096 47.333932 
L 342.781801 47.337407 
L 349.346507 47.337407 
L 355.911213 47.337407 
L 362.475919 47.340882 
" clip-path="url(#pb10a3ffb9f)" style="fill: none; stroke: #ff0000; stroke-width: 1.5; stroke-linecap: square"/>
    <defs>
     <path id="mdd004a9ba9" d="M 0 1.5 
C 0.397805 1.5 0.77937 1.341951 1.06066 1.06066 
C 1.341951 0.77937 1.5 0.397805 1.5 0 
C 1.5 -0.397805 1.341951 -0.77937 1.06066 -1.06066 
C 0.77937 -1.341951 0.397805 -1.5 0 -1.5 
C -0.397805 -1.5 -0.77937 -1.341951 -1.06066 -1.06066 
C -1.341951 -0.77937 -1.5 -0.397805 -1.5 0 
C -1.5 0.397805 -1.341951 0.77937 -1.06066 1.06066 
C -0.77937 1.341951 -0.397805 1.5 0 1.5 
z
" style="stroke: #ff0000"/>
    </defs>
    <g clip-path="url(#pb10a3ffb9f)">
     <use xlink:href="#mdd004a9ba9" x="99.887684" y="45.019699" style="fill: #ff0000; stroke: #ff0000"/>
     <use xlink:href="#mdd004a9ba9" x="106.45239" y="45.186491" style="fill: #ff0000; stroke: #ff0000"/>
     <use xlink:href="#mdd004a9ba9" x="113.017096" y="45.339383" style="fill: #ff0000; stroke: #ff0000"/>
     <use xlink:href="#mdd004a9ba9" x="119.581801" y="45.488801" style="fill: #ff0000; stroke: #ff0000"/>
     <use xlink:href="#mdd004a9ba9" x="126.146507" y="45.627794" style="fill: #ff0000; stroke: #ff0000"/>
     <use xlink:href="#mdd004a9ba9" x="132.711213" y="45.759837" style="fill: #ff0000; stroke: #ff0000"/>
     <use xlink:href="#mdd004a9ba9" x="139.275919" y="45.884931" style="fill: #ff0000; stroke: #ff0000"/>
     <use xlink:href="#mdd004a9ba9" x="145.840625" y="46.003075" style="fill: #ff0000; stroke: #ff0000"/>
     <use xlink:href="#mdd004a9ba9" x="152.405331" y="46.114269" style="fill: #ff0000; stroke: #ff0000"/>
     <use xlink:href="#mdd004a9ba9" x="158.970037" y="46.215039" style="fill: #ff0000; stroke: #ff0000"/>
     <use xlink:href="#mdd004a9ba9" x="165.534743" y="46.312334" style="fill: #ff0000; stroke: #ff0000"/>
     <use xlink:href="#mdd004a9ba9" x="172.099449" y="46.406154" style="fill: #ff0000; stroke: #ff0000"/>
     <use xlink:href="#mdd004a9ba9" x="178.664154" y="46.48955" style="fill: #ff0000; stroke: #ff0000"/>
     <use xlink:href="#mdd004a9ba9" x="185.22886" y="46.569471" style="fill: #ff0000; stroke: #ff0000"/>
     <use xlink:href="#mdd004a9ba9" x="191.793566" y="46.645917" style="fill: #ff0000; stroke: #ff0000"/>
     <use xlink:href="#mdd004a9ba9" x="198.358272" y="46.715413" style="fill: #ff0000; stroke: #ff0000"/>
     <use xlink:href="#mdd004a9ba9" x="204.922978" y="46.77796" style="fill: #ff0000; stroke: #ff0000"/>
     <use xlink:href="#mdd004a9ba9" x="211.487684" y="46.837032" style="fill: #ff0000; stroke: #ff0000"/>
     <use xlink:href="#mdd004a9ba9" x="218.05239" y="46.896104" style="fill: #ff0000; stroke: #ff0000"/>
     <use xlink:href="#mdd004a9ba9" x="224.617096" y="46.944752" style="fill: #ff0000; stroke: #ff0000"/>
     <use xlink:href="#mdd004a9ba9" x="231.181801" y="46.993399" style="fill: #ff0000; stroke: #ff0000"/>
     <use xlink:href="#mdd004a9ba9" x="237.746507" y="47.038572" style="fill: #ff0000; stroke: #ff0000"/>
     <use xlink:href="#mdd004a9ba9" x="244.311213" y="47.076795" style="fill: #ff0000; stroke: #ff0000"/>
     <use xlink:href="#mdd004a9ba9" x="250.875919" y="47.115018" style="fill: #ff0000; stroke: #ff0000"/>
     <use xlink:href="#mdd004a9ba9" x="257.440625" y="47.149766" style="fill: #ff0000; stroke: #ff0000"/>
     <use xlink:href="#mdd004a9ba9" x="264.005331" y="47.177565" style="fill: #ff0000; stroke: #ff0000"/>
     <use xlink:href="#mdd004a9ba9" x="270.570037" y="47.205364" style="fill: #ff0000; stroke: #ff0000"/>
     <use xlink:href="#mdd004a9ba9" x="277.134743" y="47.229687" style="fill: #ff0000; stroke: #ff0000"/>
     <use xlink:href="#mdd004a9ba9" x="283.699449" y="47.250536" style="fill: #ff0000; stroke: #ff0000"/>
     <use xlink:href="#mdd004a9ba9" x="290.264154" y="47.26791" style="fill: #ff0000; stroke: #ff0000"/>
     <use xlink:href="#mdd004a9ba9" x="296.82886" y="47.285285" style="fill: #ff0000; stroke: #ff0000"/>
     <use xlink:href="#mdd004a9ba9" x="303.393566" y="47.299184" style="fill: #ff0000; stroke: #ff0000"/>
     <use xlink:href="#mdd004a9ba9" x="309.958272" y="47.309608" style="fill: #ff0000; stroke: #ff0000"/>
     <use xlink:href="#mdd004a9ba9" x="316.522978" y="47.316558" style="fill: #ff0000; stroke: #ff0000"/>
     <use xlink:href="#mdd004a9ba9" x="323.087684" y="47.326982" style="fill: #ff0000; stroke: #ff0000"/>
     <use xlink:href="#mdd004a9ba9" x="329.65239" y="47.330457" style="fill: #ff0000; stroke: #ff0000"/>
     <use xlink:href="#mdd004a9ba9" x="336.217096" y="47.333932" style="fill: #ff0000; stroke: #ff0000"/>
     <use xlink:href="#mdd004a9ba9" x="342.781801" y="47.337407" style="fill: #ff0000; stroke: #ff0000"/>
     <use xlink:href="#mdd004a9ba9" x="349.346507" y="47.337407" style="fill: #ff0000; stroke: #ff0000"/>
     <use xlink:href="#mdd004a9ba9" x="355.911213" y="47.337407" style="fill: #ff0000; stroke: #ff0000"/>
     <use xlink:href="#mdd004a9ba9" x="362.475919" y="47.340882" style="fill: #ff0000; stroke: #ff0000"/>
    </g>
   </g>
   <g id="line2d_14">
    <path d="M 34.240625 42.986928 
L 40.805331 43.044845 
L 47.370037 42.523642 
L 53.934743 41.307499 
L 60.499449 39.396414 
L 67.064154 36.790383 
L 73.62886 33.489394 
L 80.193566 29.535478 
L 86.758272 25.286403 
L 93.322978 21.542654 
L 99.887684 18.493836 
L 106.45239 16.139952 
L 113.017096 14.481009 
L 119.581801 13.51702 
L 126.146507 13.248 
L 132.711213 13.673961 
L 139.275919 14.794911 
L 145.840625 16.610849 
L 152.405331 19.121772 
L 158.970037 22.327668 
L 165.534743 26.228525 
L 172.099449 30.824333 
L 178.664154 36.115083 
L 185.22886 42.100792 
L 191.793566 48.755296 
L 198.358272 55.794601 
L 204.922978 62.654591 
L 211.487684 69.693896 
L 218.05239 76.553885 
L 224.617096 83.593191 
L 231.181801 90.45318 
L 237.746507 97.492485 
L 244.311213 104.169366 
L 250.875919 110.26696 
L 257.440625 115.691966 
L 264.005331 120.422008 
L 270.570037 124.457086 
L 277.134743 127.797198 
L 283.699449 130.442346 
L 290.264154 132.392529 
L 296.82886 133.647747 
L 303.393566 134.208 
L 309.958272 134.208 
L 316.522978 134.179884 
L 323.087684 134.208 
L 329.65239 134.20672 
L 336.217096 134.208 
L 342.781801 134.207833 
L 349.346507 134.207999 
L 355.911213 134.207992 
L 362.475919 134.207849 
" clip-path="url(#pb10a3ffb9f)" style="fill: none; stroke: #a2ad00; stroke-width: 1.5; stroke-linecap: square"/>
    <defs>
     <path id="m4640bf1114" d="M 0 1.5 
C 0.397805 1.5 0.77937 1.341951 1.06066 1.06066 
C 1.341951 0.77937 1.5 0.397805 1.5 0 
C 1.5 -0.397805 1.341951 -0.77937 1.06066 -1.06066 
C 0.77937 -1.341951 0.397805 -1.5 0 -1.5 
C -0.397805 -1.5 -0.77937 -1.341951 -1.06066 -1.06066 
C -1.341951 -0.77937 -1.5 -0.397805 -1.5 0 
C -1.5 0.397805 -1.341951 0.77937 -1.06066 1.06066 
C -0.77937 1.341951 -0.397805 1.5 0 1.5 
z
" style="stroke: #a2ad00"/>
    </defs>
    <g clip-path="url(#pb10a3ffb9f)">
     <use xlink:href="#m4640bf1114" x="34.240625" y="42.986928" style="fill: #a2ad00; stroke: #a2ad00"/>
     <use xlink:href="#m4640bf1114" x="40.805331" y="43.044845" style="fill: #a2ad00; stroke: #a2ad00"/>
     <use xlink:href="#m4640bf1114" x="47.370037" y="42.523642" style="fill: #a2ad00; stroke: #a2ad00"/>
     <use xlink:href="#m4640bf1114" x="53.934743" y="41.307499" style="fill: #a2ad00; stroke: #a2ad00"/>
     <use xlink:href="#m4640bf1114" x="60.499449" y="39.396414" style="fill: #a2ad00; stroke: #a2ad00"/>
     <use xlink:href="#m4640bf1114" x="67.064154" y="36.790383" style="fill: #a2ad00; stroke: #a2ad00"/>
     <use xlink:href="#m4640bf1114" x="73.62886" y="33.489394" style="fill: #a2ad00; stroke: #a2ad00"/>
     <use xlink:href="#m4640bf1114" x="80.193566" y="29.535478" style="fill: #a2ad00; stroke: #a2ad00"/>
     <use xlink:href="#m4640bf1114" x="86.758272" y="25.286403" style="fill: #a2ad00; stroke: #a2ad00"/>
     <use xlink:href="#m4640bf1114" x="93.322978" y="21.542654" style="fill: #a2ad00; stroke: #a2ad00"/>
     <use xlink:href="#m4640bf1114" x="99.887684" y="18.493836" style="fill: #a2ad00; stroke: #a2ad00"/>
     <use xlink:href="#m4640bf1114" x="106.45239" y="16.139952" style="fill: #a2ad00; stroke: #a2ad00"/>
     <use xlink:href="#m4640bf1114" x="113.017096" y="14.481009" style="fill: #a2ad00; stroke: #a2ad00"/>
     <use xlink:href="#m4640bf1114" x="119.581801" y="13.51702" style="fill: #a2ad00; stroke: #a2ad00"/>
     <use xlink:href="#m4640bf1114" x="126.146507" y="13.248" style="fill: #a2ad00; stroke: #a2ad00"/>
     <use xlink:href="#m4640bf1114" x="132.711213" y="13.673961" style="fill: #a2ad00; stroke: #a2ad00"/>
     <use xlink:href="#m4640bf1114" x="139.275919" y="14.794911" style="fill: #a2ad00; stroke: #a2ad00"/>
     <use xlink:href="#m4640bf1114" x="145.840625" y="16.610849" style="fill: #a2ad00; stroke: #a2ad00"/>
     <use xlink:href="#m4640bf1114" x="152.405331" y="19.121772" style="fill: #a2ad00; stroke: #a2ad00"/>
     <use xlink:href="#m4640bf1114" x="158.970037" y="22.327668" style="fill: #a2ad00; stroke: #a2ad00"/>
     <use xlink:href="#m4640bf1114" x="165.534743" y="26.228525" style="fill: #a2ad00; stroke: #a2ad00"/>
     <use xlink:href="#m4640bf1114" x="172.099449" y="30.824333" style="fill: #a2ad00; stroke: #a2ad00"/>
     <use xlink:href="#m4640bf1114" x="178.664154" y="36.115083" style="fill: #a2ad00; stroke: #a2ad00"/>
     <use xlink:href="#m4640bf1114" x="185.22886" y="42.100792" style="fill: #a2ad00; stroke: #a2ad00"/>
     <use xlink:href="#m4640bf1114" x="191.793566" y="48.755296" style="fill: #a2ad00; stroke: #a2ad00"/>
     <use xlink:href="#m4640bf1114" x="198.358272" y="55.794601" style="fill: #a2ad00; stroke: #a2ad00"/>
     <use xlink:href="#m4640bf1114" x="204.922978" y="62.654591" style="fill: #a2ad00; stroke: #a2ad00"/>
     <use xlink:href="#m4640bf1114" x="211.487684" y="69.693896" style="fill: #a2ad00; stroke: #a2ad00"/>
     <use xlink:href="#m4640bf1114" x="218.05239" y="76.553885" style="fill: #a2ad00; stroke: #a2ad00"/>
     <use xlink:href="#m4640bf1114" x="224.617096" y="83.593191" style="fill: #a2ad00; stroke: #a2ad00"/>
     <use xlink:href="#m4640bf1114" x="231.181801" y="90.45318" style="fill: #a2ad00; stroke: #a2ad00"/>
     <use xlink:href="#m4640bf1114" x="237.746507" y="97.492485" style="fill: #a2ad00; stroke: #a2ad00"/>
     <use xlink:href="#m4640bf1114" x="244.311213" y="104.169366" style="fill: #a2ad00; stroke: #a2ad00"/>
     <use xlink:href="#m4640bf1114" x="250.875919" y="110.26696" style="fill: #a2ad00; stroke: #a2ad00"/>
     <use xlink:href="#m4640bf1114" x="257.440625" y="115.691966" style="fill: #a2ad00; stroke: #a2ad00"/>
     <use xlink:href="#m4640bf1114" x="264.005331" y="120.422008" style="fill: #a2ad00; stroke: #a2ad00"/>
     <use xlink:href="#m4640bf1114" x="270.570037" y="124.457086" style="fill: #a2ad00; stroke: #a2ad00"/>
     <use xlink:href="#m4640bf1114" x="277.134743" y="127.797198" style="fill: #a2ad00; stroke: #a2ad00"/>
     <use xlink:href="#m4640bf1114" x="283.699449" y="130.442346" style="fill: #a2ad00; stroke: #a2ad00"/>
     <use xlink:href="#m4640bf1114" x="290.264154" y="132.392529" style="fill: #a2ad00; stroke: #a2ad00"/>
     <use xlink:href="#m4640bf1114" x="296.82886" y="133.647747" style="fill: #a2ad00; stroke: #a2ad00"/>
     <use xlink:href="#m4640bf1114" x="303.393566" y="134.208" style="fill: #a2ad00; stroke: #a2ad00"/>
     <use xlink:href="#m4640bf1114" x="309.958272" y="134.208" style="fill: #a2ad00; stroke: #a2ad00"/>
     <use xlink:href="#m4640bf1114" x="316.522978" y="134.179884" style="fill: #a2ad00; stroke: #a2ad00"/>
     <use xlink:href="#m4640bf1114" x="323.087684" y="134.208" style="fill: #a2ad00; stroke: #a2ad00"/>
     <use xlink:href="#m4640bf1114" x="329.65239" y="134.20672" style="fill: #a2ad00; stroke: #a2ad00"/>
     <use xlink:href="#m4640bf1114" x="336.217096" y="134.208" style="fill: #a2ad00; stroke: #a2ad00"/>
     <use xlink:href="#m4640bf1114" x="342.781801" y="134.207833" style="fill: #a2ad00; stroke: #a2ad00"/>
     <use xlink:href="#m4640bf1114" x="349.346507" y="134.207999" style="fill: #a2ad00; stroke: #a2ad00"/>
     <use xlink:href="#m4640bf1114" x="355.911213" y="134.207992" style="fill: #a2ad00; stroke: #a2ad00"/>
     <use xlink:href="#m4640bf1114" x="362.475919" y="134.207849" style="fill: #a2ad00; stroke: #a2ad00"/>
    </g>
   </g>
   <g id="patch_3">
    <path d="M 34.240625 140.256 
L 34.240625 7.2 
" style="fill: none; stroke: #000000; stroke-width: 0.8; stroke-linejoin: miter; stroke-linecap: square"/>
   </g>
   <g id="patch_4">
    <path d="M 369.040625 140.256 
L 369.040625 7.2 
" style="fill: none; stroke: #000000; stroke-width: 0.8; stroke-linejoin: miter; stroke-linecap: square"/>
   </g>
   <g id="patch_5">
    <path d="M 34.240625 140.256 
L 369.040625 140.256 
" style="fill: none; stroke: #000000; stroke-width: 0.8; stroke-linejoin: miter; stroke-linecap: square"/>
   </g>
   <g id="patch_6">
    <path d="M 34.240625 7.2 
L 369.040625 7.2 
" style="fill: none; stroke: #000000; stroke-width: 0.8; stroke-linejoin: miter; stroke-linecap: square"/>
   </g>
  </g>
 </g>
 <defs>
  <clipPath id="pb10a3ffb9f">
   <rect x="34.240625" y="7.2" width="334.8" height="133.056"/>
  </clipPath>
 </defs>
</svg>
