<?xml version="1.0" encoding="utf-8" standalone="no"?>
<!DOCTYPE svg PUBLIC "-//W3C//DTD SVG 1.1//EN"
  "http://www.w3.org/Graphics/SVG/1.1/DTD/svg11.dtd">
<svg xmlns:xlink="http://www.w3.org/1999/xlink" width="385.78125pt" height="177.81225pt" viewBox="0 0 385.78125 177.81225" xmlns="http://www.w3.org/2000/svg" version="1.1">
 <metadata>
  <rdf:RDF xmlns:dc="http://purl.org/dc/elements/1.1/" xmlns:cc="http://creativecommons.org/ns#" xmlns:rdf="http://www.w3.org/1999/02/22-rdf-syntax-ns#">
   <cc:Work>
    <dc:type rdf:resource="http://purl.org/dc/dcmitype/StillImage"/>
    <dc:date>2024-10-18T10:16:59.085716</dc:date>
    <dc:format>image/svg+xml</dc:format>
    <dc:creator>
     <cc:Agent>
      <dc:title>Matplotlib v3.6.0, https://matplotlib.org/</dc:title>
     </cc:Agent>
    </dc:creator>
   </cc:Work>
  </rdf:RDF>
 </metadata>
 <defs>
  <style type="text/css">*{stroke-linejoin: round; stroke-linecap: butt}</style>
 </defs>
 <g id="figure_1">
  <g id="patch_1">
   <path d="M 0 177.81225 
L 385.78125 177.81225 
L 385.78125 0 
L 0 0 
z
" style="fill: #ffffff"/>
  </g>
  <g id="axes_1">
   <g id="patch_2">
    <path d="M 43.78125 140.256 
L 378.58125 140.256 
L 378.58125 7.2 
L 43.78125 7.2 
z
" style="fill: #ffffff"/>
   </g>
   <g id="matplotlib.axis_1">
    <g id="xtick_1">
     <g id="line2d_1">
      <defs>
       <path id="meb38ccb9e4" d="M 0 0 
L 0 3.5 
" style="stroke: #000000; stroke-width: 0.8"/>
      </defs>
      <g>
       <use xlink:href="#meb38ccb9e4" x="43.78125" y="140.256" style="stroke: #000000; stroke-width: 0.8"/>
      </g>
     </g>
     <g id="text_1">
      <text style="font: 10px 'sans-serif'; text-anchor: middle" x="43.78125" y="154.854437" transform="rotate(-0 43.78125 154.854437)">0</text>
     </g>
    </g>
    <g id="xtick_2">
     <g id="line2d_2">
      <g>
       <use xlink:href="#meb38ccb9e4" x="109.428309" y="140.256" style="stroke: #000000; stroke-width: 0.8"/>
      </g>
     </g>
     <g id="text_2">
      <text style="font: 10px 'sans-serif'; text-anchor: middle" x="109.428309" y="154.854437" transform="rotate(-0 109.428309 154.854437)">10</text>
     </g>
    </g>
    <g id="xtick_3">
     <g id="line2d_3">
      <g>
       <use xlink:href="#meb38ccb9e4" x="175.075368" y="140.256" style="stroke: #000000; stroke-width: 0.8"/>
      </g>
     </g>
     <g id="text_3">
      <text style="font: 10px 'sans-serif'; text-anchor: middle" x="175.075368" y="154.854437" transform="rotate(-0 175.075368 154.854437)">20</text>
     </g>
    </g>
    <g id="xtick_4">
     <g id="line2d_4">
      <g>
       <use xlink:href="#meb38ccb9e4" x="240.722426" y="140.256" style="stroke: #000000; stroke-width: 0.8"/>
      </g>
     </g>
     <g id="text_4">
      <text style="font: 10px 'sans-serif'; text-anchor: middle" x="240.722426" y="154.854437" transform="rotate(-0 240.722426 154.854437)">30</text>
     </g>
    </g>
    <g id="xtick_5">
     <g id="line2d_5">
      <g>
       <use xlink:href="#meb38ccb9e4" x="306.369485" y="140.256" style="stroke: #000000; stroke-width: 0.8"/>
      </g>
     </g>
     <g id="text_5">
      <text style="font: 10px 'sans-serif'; text-anchor: middle" x="306.369485" y="154.854437" transform="rotate(-0 306.369485 154.854437)">40</text>
     </g>
    </g>
    <g id="xtick_6">
     <g id="line2d_6">
      <g>
       <use xlink:href="#meb38ccb9e4" x="372.016544" y="140.256" style="stroke: #000000; stroke-width: 0.8"/>
      </g>
     </g>
     <g id="text_6">
      <text style="font: 10px 'sans-serif'; text-anchor: middle" x="372.016544" y="154.854437" transform="rotate(-0 372.016544 154.854437)">50</text>
     </g>
    </g>
    <g id="text_7">
     <text style="font: 10px 'sans-serif'; text-anchor: middle" x="211.18125" y="168.532562" transform="rotate(-0 211.18125 168.532562)">Time step</text>
    </g>
   </g>
   <g id="matplotlib.axis_2">
    <g id="ytick_1">
     <g id="line2d_7">
      <defs>
       <path id="m2c7175d42a" d="M 0 0 
L -3.5 0 
" style="stroke: #000000; stroke-width: 0.8"/>
      </defs>
      <g>
       <use xlink:href="#m2c7175d42a" x="43.78125" y="134.208" style="stroke: #000000; stroke-width: 0.8"/>
      </g>
     </g>
     <g id="text_8">
      <text style="font: 10px 'sans-serif'; text-anchor: end" x="36.78125" y="138.007219" transform="rotate(-0 36.78125 138.007219)">0.0</text>
     </g>
    </g>
    <g id="ytick_2">
     <g id="line2d_8">
      <g>
       <use xlink:href="#m2c7175d42a" x="43.78125" y="110.034645" style="stroke: #000000; stroke-width: 0.8"/>
      </g>
     </g>
     <g id="text_9">
      <text style="font: 10px 'sans-serif'; text-anchor: end" x="36.78125" y="113.833863" transform="rotate(-0 36.78125 113.833863)">0.5</text>
     </g>
    </g>
    <g id="ytick_3">
     <g id="line2d_9">
      <g>
       <use xlink:href="#m2c7175d42a" x="43.78125" y="85.861289" style="stroke: #000000; stroke-width: 0.8"/>
      </g>
     </g>
     <g id="text_10">
      <text style="font: 10px 'sans-serif'; text-anchor: end" x="36.78125" y="89.660508" transform="rotate(-0 36.78125 89.660508)">1.0</text>
     </g>
    </g>
    <g id="ytick_4">
     <g id="line2d_10">
      <g>
       <use xlink:href="#m2c7175d42a" x="43.78125" y="61.687934" style="stroke: #000000; stroke-width: 0.8"/>
      </g>
     </g>
     <g id="text_11">
      <text style="font: 10px 'sans-serif'; text-anchor: end" x="36.78125" y="65.487153" transform="rotate(-0 36.78125 65.487153)">1.5</text>
     </g>
    </g>
    <g id="ytick_5">
     <g id="line2d_11">
      <g>
       <use xlink:href="#m2c7175d42a" x="43.78125" y="37.514579" style="stroke: #000000; stroke-width: 0.8"/>
      </g>
     </g>
     <g id="text_12">
      <text style="font: 10px 'sans-serif'; text-anchor: end" x="36.78125" y="41.313798" transform="rotate(-0 36.78125 41.313798)">2.0</text>
     </g>
    </g>
    <g id="ytick_6">
     <g id="line2d_12">
      <g>
       <use xlink:href="#m2c7175d42a" x="43.78125" y="13.341224" style="stroke: #000000; stroke-width: 0.8"/>
      </g>
     </g>
     <g id="text_13">
      <text style="font: 10px 'sans-serif'; text-anchor: end" x="36.78125" y="17.140442" transform="rotate(-0 36.78125 17.140442)">2.5</text>
     </g>
    </g>
    <g id="text_14">
     <text style="font: 10px 'sans-serif'; text-anchor: middle" x="14.798438" y="73.728" transform="rotate(-90 14.798438 73.728)">Velocity</text>
    </g>
   </g>
   <g id="line2d_13">
    <path d="M 43.78125 134.208 
L 378.58125 134.208 
" clip-path="url(#p9864cf323d)" style="fill: none; stroke-dasharray: 3.7,1.6; stroke-dashoffset: 0; stroke: #1f77b4"/>
   </g>
   <g id="line2d_14">
    <path d="M 43.78125 125.476584 
L 50.345956 85.111749 
L 56.910662 72.926753 
L 63.475368 75.488476 
L 70.040074 65.906449 
L 76.604779 57.357288 
L 83.169485 49.78244 
L 89.734191 43.123351 
L 96.298897 37.32147 
L 102.863603 32.318243 
L 109.428309 28.055119 
L 115.993015 24.473546 
L 122.557721 21.51497 
L 129.122426 19.120842 
L 135.687132 17.232607 
L 142.251838 15.791713 
L 148.816544 14.739608 
L 155.38125 14.017738 
L 161.945956 13.56755 
L 168.510662 13.330489 
L 175.075368 13.248 
L 181.640074 13.261529 
L 188.204779 13.31252 
L 194.769485 13.342419 
L 201.334191 13.342252 
L 207.898897 13.342085 
L 214.463603 13.341918 
L 221.028309 13.341751 
L 227.593015 13.341584 
L 234.157721 13.341417 
L 240.722426 13.341251 
L 247.287132 13.341084 
L 253.851838 13.340917 
L 260.416544 13.34075 
L 266.98125 13.340583 
L 273.545956 13.340416 
L 280.110662 13.340249 
L 286.675368 13.340083 
L 293.240074 13.339916 
L 299.804779 13.339749 
L 306.369485 13.339582 
L 312.934191 13.339415 
L 319.498897 13.339248 
L 326.063603 13.339081 
L 332.628309 13.338915 
L 339.193015 13.338748 
L 345.757721 13.338581 
L 352.322426 13.338414 
L 358.887132 13.338247 
L 365.451838 13.33808 
L 372.016544 13.337913 
" clip-path="url(#p9864cf323d)" style="fill: none; stroke: #0065bd; stroke-width: 1.5; stroke-linecap: square"/>
    <defs>
     <path id="m9baaf37a83" d="M 0 1.5 
C 0.397805 1.5 0.77937 1.341951 1.06066 1.06066 
C 1.341951 0.77937 1.5 0.397805 1.5 0 
C 1.5 -0.397805 1.341951 -0.77937 1.06066 -1.06066 
C 0.77937 -1.341951 0.397805 -1.5 0 -1.5 
C -0.397805 -1.5 -0.77937 -1.341951 -1.06066 -1.06066 
C -1.341951 -0.77937 -1.5 -0.397805 -1.5 0 
C -1.5 0.397805 -1.341951 0.77937 -1.06066 1.06066 
C -0.77937 1.341951 -0.397805 1.5 0 1.5 
z
" style="stroke: #0065bd"/>
    </defs>
    <g clip-path="url(#p9864cf323d)">
     <use xlink:href="#m9baaf37a83" x="43.78125" y="125.476584" style="fill: #0065bd; stroke: #0065bd"/>
     <use xlink:href="#m9baaf37a83" x="50.345956" y="85.111749" style="fill: #0065bd; stroke: #0065bd"/>
     <use xlink:href="#m9baaf37a83" x="56.910662" y="72.926753" style="fill: #0065bd; stroke: #0065bd"/>
     <use xlink:href="#m9baaf37a83" x="63.475368" y="75.488476" style="fill: #0065bd; stroke: #0065bd"/>
     <use xlink:href="#m9baaf37a83" x="70.040074" y="65.906449" style="fill: #0065bd; stroke: #0065bd"/>
     <use xlink:href="#m9baaf37a83" x="76.604779" y="57.357288" style="fill: #0065bd; stroke: #0065bd"/>
     <use xlink:href="#m9baaf37a83" x="83.169485" y="49.78244" style="fill: #0065bd; stroke: #0065bd"/>
     <use xlink:href="#m9baaf37a83" x="89.734191" y="43.123351" style="fill: #0065bd; stroke: #0065bd"/>
     <use xlink:href="#m9baaf37a83" x="96.298897" y="37.32147" style="fill: #0065bd; stroke: #0065bd"/>
     <use xlink:href="#m9baaf37a83" x="102.863603" y="32.318243" style="fill: #0065bd; stroke: #0065bd"/>
     <use xlink:href="#m9baaf37a83" x="109.428309" y="28.055119" style="fill: #0065bd; stroke: #0065bd"/>
     <use xlink:href="#m9baaf37a83" x="115.993015" y="24.473546" style="fill: #0065bd; stroke: #0065bd"/>
     <use xlink:href="#m9baaf37a83" x="122.557721" y="21.51497" style="fill: #0065bd; stroke: #0065bd"/>
     <use xlink:href="#m9baaf37a83" x="129.122426" y="19.120842" style="fill: #0065bd; stroke: #0065bd"/>
     <use xlink:href="#m9baaf37a83" x="135.687132" y="17.232607" style="fill: #0065bd; stroke: #0065bd"/>
     <use xlink:href="#m9baaf37a83" x="142.251838" y="15.791713" style="fill: #0065bd; stroke: #0065bd"/>
     <use xlink:href="#m9baaf37a83" x="148.816544" y="14.739608" style="fill: #0065bd; stroke: #0065bd"/>
     <use xlink:href="#m9baaf37a83" x="155.38125" y="14.017738" style="fill: #0065bd; stroke: #0065bd"/>
     <use xlink:href="#m9baaf37a83" x="161.945956" y="13.56755" style="fill: #0065bd; stroke: #0065bd"/>
     <use xlink:href="#m9baaf37a83" x="168.510662" y="13.330489" style="fill: #0065bd; stroke: #0065bd"/>
     <use xlink:href="#m9baaf37a83" x="175.075368" y="13.248" style="fill: #0065bd; stroke: #0065bd"/>
     <use xlink:href="#m9baaf37a83" x="181.640074" y="13.261529" style="fill: #0065bd; stroke: #0065bd"/>
     <use xlink:href="#m9baaf37a83" x="188.204779" y="13.31252" style="fill: #0065bd; stroke: #0065bd"/>
     <use xlink:href="#m9baaf37a83" x="194.769485" y="13.342419" style="fill: #0065bd; stroke: #0065bd"/>
     <use xlink:href="#m9baaf37a83" x="201.334191" y="13.342252" style="fill: #0065bd; stroke: #0065bd"/>
     <use xlink:href="#m9baaf37a83" x="207.898897" y="13.342085" style="fill: #0065bd; stroke: #0065bd"/>
     <use xlink:href="#m9baaf37a83" x="214.463603" y="13.341918" style="fill: #0065bd; stroke: #0065bd"/>
     <use xlink:href="#m9baaf37a83" x="221.028309" y="13.341751" style="fill: #0065bd; stroke: #0065bd"/>
     <use xlink:href="#m9baaf37a83" x="227.593015" y="13.341584" style="fill: #0065bd; stroke: #0065bd"/>
     <use xlink:href="#m9baaf37a83" x="234.157721" y="13.341417" style="fill: #0065bd; stroke: #0065bd"/>
     <use xlink:href="#m9baaf37a83" x="240.722426" y="13.341251" style="fill: #0065bd; stroke: #0065bd"/>
     <use xlink:href="#m9baaf37a83" x="247.287132" y="13.341084" style="fill: #0065bd; stroke: #0065bd"/>
     <use xlink:href="#m9baaf37a83" x="253.851838" y="13.340917" style="fill: #0065bd; stroke: #0065bd"/>
     <use xlink:href="#m9baaf37a83" x="260.416544" y="13.34075" style="fill: #0065bd; stroke: #0065bd"/>
     <use xlink:href="#m9baaf37a83" x="266.98125" y="13.340583" style="fill: #0065bd; stroke: #0065bd"/>
     <use xlink:href="#m9baaf37a83" x="273.545956" y="13.340416" style="fill: #0065bd; stroke: #0065bd"/>
     <use xlink:href="#m9baaf37a83" x="280.110662" y="13.340249" style="fill: #0065bd; stroke: #0065bd"/>
     <use xlink:href="#m9baaf37a83" x="286.675368" y="13.340083" style="fill: #0065bd; stroke: #0065bd"/>
     <use xlink:href="#m9baaf37a83" x="293.240074" y="13.339916" style="fill: #0065bd; stroke: #0065bd"/>
     <use xlink:href="#m9baaf37a83" x="299.804779" y="13.339749" style="fill: #0065bd; stroke: #0065bd"/>
     <use xlink:href="#m9baaf37a83" x="306.369485" y="13.339582" style="fill: #0065bd; stroke: #0065bd"/>
     <use xlink:href="#m9baaf37a83" x="312.934191" y="13.339415" style="fill: #0065bd; stroke: #0065bd"/>
     <use xlink:href="#m9baaf37a83" x="319.498897" y="13.339248" style="fill: #0065bd; stroke: #0065bd"/>
     <use xlink:href="#m9baaf37a83" x="326.063603" y="13.339081" style="fill: #0065bd; stroke: #0065bd"/>
     <use xlink:href="#m9baaf37a83" x="332.628309" y="13.338915" style="fill: #0065bd; stroke: #0065bd"/>
     <use xlink:href="#m9baaf37a83" x="339.193015" y="13.338748" style="fill: #0065bd; stroke: #0065bd"/>
     <use xlink:href="#m9baaf37a83" x="345.757721" y="13.338581" style="fill: #0065bd; stroke: #0065bd"/>
     <use xlink:href="#m9baaf37a83" x="352.322426" y="13.338414" style="fill: #0065bd; stroke: #0065bd"/>
     <use xlink:href="#m9baaf37a83" x="358.887132" y="13.338247" style="fill: #0065bd; stroke: #0065bd"/>
     <use xlink:href="#m9baaf37a83" x="365.451838" y="13.33808" style="fill: #0065bd; stroke: #0065bd"/>
     <use xlink:href="#m9baaf37a83" x="372.016544" y="13.337913" style="fill: #0065bd; stroke: #0065bd"/>
    </g>
   </g>
   <g id="line2d_15">
    <path d="M 96.298897 37.32147 
L 102.863603 32.318243 
L 109.428309 28.055119 
L 115.993015 24.473546 
L 122.557721 21.51497 
L 129.122426 19.120842 
L 135.687132 17.232607 
L 142.251838 15.791713 
L 148.816544 14.739608 
L 155.38125 14.017738 
L 161.945956 13.56755 
L 168.510662 13.330489 
L 175.075368 13.248 
L 181.640074 13.261529 
L 188.204779 13.31252 
L 194.769485 13.342419 
L 201.334191 13.342252 
L 207.898897 13.342085 
L 214.463603 13.341918 
L 221.028309 13.341751 
L 227.593015 13.341584 
L 234.157721 13.341417 
L 240.722426 13.341251 
L 247.287132 13.341084 
L 253.851838 13.340917 
L 260.416544 13.34075 
L 266.98125 13.340583 
L 273.545956 13.340416 
L 280.110662 13.340249 
L 286.675368 13.340083 
L 293.240074 13.339916 
L 299.804779 13.339749 
L 306.369485 13.339582 
L 312.934191 13.339415 
L 319.498897 13.339248 
L 326.063603 13.339081 
L 332.628309 13.338915 
L 339.193015 13.338748 
L 345.757721 13.338581 
L 352.322426 13.338414 
L 358.887132 13.338247 
L 365.451838 13.33808 
L 372.016544 13.337913 
" clip-path="url(#p9864cf323d)" style="fill: none; stroke: #ff0000; stroke-width: 1.5; stroke-linecap: square"/>
    <defs>
     <path id="mf94af4887e" d="M 0 1.5 
C 0.397805 1.5 0.77937 1.341951 1.06066 1.06066 
C 1.341951 0.77937 1.5 0.397805 1.5 0 
C 1.5 -0.397805 1.341951 -0.77937 1.06066 -1.06066 
C 0.77937 -1.341951 0.397805 -1.5 0 -1.5 
C -0.397805 -1.5 -0.77937 -1.341951 -1.06066 -1.06066 
C -1.341951 -0.77937 -1.5 -0.397805 -1.5 0 
C -1.5 0.397805 -1.341951 0.77937 -1.06066 1.06066 
C -0.77937 1.341951 -0.397805 1.5 0 1.5 
z
" style="stroke: #ff0000"/>
    </defs>
    <g clip-path="url(#p9864cf323d)">
     <use xlink:href="#mf94af4887e" x="96.298897" y="37.32147" style="fill: #ff0000; stroke: #ff0000"/>
     <use xlink:href="#mf94af4887e" x="102.863603" y="32.318243" style="fill: #ff0000; stroke: #ff0000"/>
     <use xlink:href="#mf94af4887e" x="109.428309" y="28.055119" style="fill: #ff0000; stroke: #ff0000"/>
     <use xlink:href="#mf94af4887e" x="115.993015" y="24.473546" style="fill: #ff0000; stroke: #ff0000"/>
     <use xlink:href="#mf94af4887e" x="122.557721" y="21.51497" style="fill: #ff0000; stroke: #ff0000"/>
     <use xlink:href="#mf94af4887e" x="129.122426" y="19.120842" style="fill: #ff0000; stroke: #ff0000"/>
     <use xlink:href="#mf94af4887e" x="135.687132" y="17.232607" style="fill: #ff0000; stroke: #ff0000"/>
     <use xlink:href="#mf94af4887e" x="142.251838" y="15.791713" style="fill: #ff0000; stroke: #ff0000"/>
     <use xlink:href="#mf94af4887e" x="148.816544" y="14.739608" style="fill: #ff0000; stroke: #ff0000"/>
     <use xlink:href="#mf94af4887e" x="155.38125" y="14.017738" style="fill: #ff0000; stroke: #ff0000"/>
     <use xlink:href="#mf94af4887e" x="161.945956" y="13.56755" style="fill: #ff0000; stroke: #ff0000"/>
     <use xlink:href="#mf94af4887e" x="168.510662" y="13.330489" style="fill: #ff0000; stroke: #ff0000"/>
     <use xlink:href="#mf94af4887e" x="175.075368" y="13.248" style="fill: #ff0000; stroke: #ff0000"/>
     <use xlink:href="#mf94af4887e" x="181.640074" y="13.261529" style="fill: #ff0000; stroke: #ff0000"/>
     <use xlink:href="#mf94af4887e" x="188.204779" y="13.31252" style="fill: #ff0000; stroke: #ff0000"/>
     <use xlink:href="#mf94af4887e" x="194.769485" y="13.342419" style="fill: #ff0000; stroke: #ff0000"/>
     <use xlink:href="#mf94af4887e" x="201.334191" y="13.342252" style="fill: #ff0000; stroke: #ff0000"/>
     <use xlink:href="#mf94af4887e" x="207.898897" y="13.342085" style="fill: #ff0000; stroke: #ff0000"/>
     <use xlink:href="#mf94af4887e" x="214.463603" y="13.341918" style="fill: #ff0000; stroke: #ff0000"/>
     <use xlink:href="#mf94af4887e" x="221.028309" y="13.341751" style="fill: #ff0000; stroke: #ff0000"/>
     <use xlink:href="#mf94af4887e" x="227.593015" y="13.341584" style="fill: #ff0000; stroke: #ff0000"/>
     <use xlink:href="#mf94af4887e" x="234.157721" y="13.341417" style="fill: #ff0000; stroke: #ff0000"/>
     <use xlink:href="#mf94af4887e" x="240.722426" y="13.341251" style="fill: #ff0000; stroke: #ff0000"/>
     <use xlink:href="#mf94af4887e" x="247.287132" y="13.341084" style="fill: #ff0000; stroke: #ff0000"/>
     <use xlink:href="#mf94af4887e" x="253.851838" y="13.340917" style="fill: #ff0000; stroke: #ff0000"/>
     <use xlink:href="#mf94af4887e" x="260.416544" y="13.34075" style="fill: #ff0000; stroke: #ff0000"/>
     <use xlink:href="#mf94af4887e" x="266.98125" y="13.340583" style="fill: #ff0000; stroke: #ff0000"/>
     <use xlink:href="#mf94af4887e" x="273.545956" y="13.340416" style="fill: #ff0000; stroke: #ff0000"/>
     <use xlink:href="#mf94af4887e" x="280.110662" y="13.340249" style="fill: #ff0000; stroke: #ff0000"/>
     <use xlink:href="#mf94af4887e" x="286.675368" y="13.340083" style="fill: #ff0000; stroke: #ff0000"/>
     <use xlink:href="#mf94af4887e" x="293.240074" y="13.339916" style="fill: #ff0000; stroke: #ff0000"/>
     <use xlink:href="#mf94af4887e" x="299.804779" y="13.339749" style="fill: #ff0000; stroke: #ff0000"/>
     <use xlink:href="#mf94af4887e" x="306.369485" y="13.339582" style="fill: #ff0000; stroke: #ff0000"/>
     <use xlink:href="#mf94af4887e" x="312.934191" y="13.339415" style="fill: #ff0000; stroke: #ff0000"/>
     <use xlink:href="#mf94af4887e" x="319.498897" y="13.339248" style="fill: #ff0000; stroke: #ff0000"/>
     <use xlink:href="#mf94af4887e" x="326.063603" y="13.339081" style="fill: #ff0000; stroke: #ff0000"/>
     <use xlink:href="#mf94af4887e" x="332.628309" y="13.338915" style="fill: #ff0000; stroke: #ff0000"/>
     <use xlink:href="#mf94af4887e" x="339.193015" y="13.338748" style="fill: #ff0000; stroke: #ff0000"/>
     <use xlink:href="#mf94af4887e" x="345.757721" y="13.338581" style="fill: #ff0000; stroke: #ff0000"/>
     <use xlink:href="#mf94af4887e" x="352.322426" y="13.338414" style="fill: #ff0000; stroke: #ff0000"/>
     <use xlink:href="#mf94af4887e" x="358.887132" y="13.338247" style="fill: #ff0000; stroke: #ff0000"/>
     <use xlink:href="#mf94af4887e" x="365.451838" y="13.33808" style="fill: #ff0000; stroke: #ff0000"/>
     <use xlink:href="#mf94af4887e" x="372.016544" y="13.337913" style="fill: #ff0000; stroke: #ff0000"/>
    </g>
   </g>
   <g id="line2d_16">
    <path d="M 56.910662 72.926753 
L 63.475368 75.649637 
L 70.040074 79.178303 
L 76.604779 83.673906 
L 83.169485 89.136446 
L 89.734191 95.56592 
L 96.298897 102.790149 
L 102.863603 109.970287 
L 109.428309 116.333623 
L 115.993015 121.730023 
L 122.557721 126.159487 
L 129.122426 129.622017 
L 135.687132 132.117611 
L 142.251838 133.646271 
L 148.816544 134.207999 
L 155.38125 134.083064 
L 161.945956 134.207997 
L 168.510662 134.207996 
L 175.075368 134.207996 
L 181.640074 134.207996 
L 188.204779 134.207996 
L 194.769485 134.207996 
L 201.334191 134.207996 
L 207.898897 134.207996 
L 214.463603 134.207996 
L 221.028309 134.207995 
L 227.593015 134.207995 
L 234.157721 134.207995 
L 240.722426 134.207995 
L 247.287132 134.207994 
L 253.851838 134.207994 
L 260.416544 134.207994 
L 266.98125 134.207993 
L 273.545956 134.207993 
L 280.110662 134.207992 
L 286.675368 134.207992 
L 293.240074 134.207991 
L 299.804779 134.20799 
L 306.369485 134.20799 
L 312.934191 134.207988 
L 319.498897 134.207987 
L 326.063603 134.207985 
L 332.628309 134.207983 
L 339.193015 134.207979 
L 345.757721 134.207976 
L 352.322426 134.207966 
L 358.887132 134.207968 
L 365.451838 134.207884 
L 372.016544 134.207924 
" clip-path="url(#p9864cf323d)" style="fill: none; stroke: #a2ad00; stroke-width: 1.5; stroke-linecap: square"/>
    <defs>
     <path id="m7096391589" d="M 0 1.5 
C 0.397805 1.5 0.77937 1.341951 1.06066 1.06066 
C 1.341951 0.77937 1.5 0.397805 1.5 0 
C 1.5 -0.397805 1.341951 -0.77937 1.06066 -1.06066 
C 0.77937 -1.341951 0.397805 -1.5 0 -1.5 
C -0.397805 -1.5 -0.77937 -1.341951 -1.06066 -1.06066 
C -1.341951 -0.77937 -1.5 -0.397805 -1.5 0 
C -1.5 0.397805 -1.341951 0.77937 -1.06066 1.06066 
C -0.77937 1.341951 -0.397805 1.5 0 1.5 
z
" style="stroke: #a2ad00"/>
    </defs>
    <g clip-path="url(#p9864cf323d)">
     <use xlink:href="#m7096391589" x="56.910662" y="72.926753" style="fill: #a2ad00; stroke: #a2ad00"/>
     <use xlink:href="#m7096391589" x="63.475368" y="75.649637" style="fill: #a2ad00; stroke: #a2ad00"/>
     <use xlink:href="#m7096391589" x="70.040074" y="79.178303" style="fill: #a2ad00; stroke: #a2ad00"/>
     <use xlink:href="#m7096391589" x="76.604779" y="83.673906" style="fill: #a2ad00; stroke: #a2ad00"/>
     <use xlink:href="#m7096391589" x="83.169485" y="89.136446" style="fill: #a2ad00; stroke: #a2ad00"/>
     <use xlink:href="#m7096391589" x="89.734191" y="95.56592" style="fill: #a2ad00; stroke: #a2ad00"/>
     <use xlink:href="#m7096391589" x="96.298897" y="102.790149" style="fill: #a2ad00; stroke: #a2ad00"/>
     <use xlink:href="#m7096391589" x="102.863603" y="109.970287" style="fill: #a2ad00; stroke: #a2ad00"/>
     <use xlink:href="#m7096391589" x="109.428309" y="116.333623" style="fill: #a2ad00; stroke: #a2ad00"/>
     <use xlink:href="#m7096391589" x="115.993015" y="121.730023" style="fill: #a2ad00; stroke: #a2ad00"/>
     <use xlink:href="#m7096391589" x="122.557721" y="126.159487" style="fill: #a2ad00; stroke: #a2ad00"/>
     <use xlink:href="#m7096391589" x="129.122426" y="129.622017" style="fill: #a2ad00; stroke: #a2ad00"/>
     <use xlink:href="#m7096391589" x="135.687132" y="132.117611" style="fill: #a2ad00; stroke: #a2ad00"/>
     <use xlink:href="#m7096391589" x="142.251838" y="133.646271" style="fill: #a2ad00; stroke: #a2ad00"/>
     <use xlink:href="#m7096391589" x="148.816544" y="134.207999" style="fill: #a2ad00; stroke: #a2ad00"/>
     <use xlink:href="#m7096391589" x="155.38125" y="134.083064" style="fill: #a2ad00; stroke: #a2ad00"/>
     <use xlink:href="#m7096391589" x="161.945956" y="134.207997" style="fill: #a2ad00; stroke: #a2ad00"/>
     <use xlink:href="#m7096391589" x="168.510662" y="134.207996" style="fill: #a2ad00; stroke: #a2ad00"/>
     <use xlink:href="#m7096391589" x="175.075368" y="134.207996" style="fill: #a2ad00; stroke: #a2ad00"/>
     <use xlink:href="#m7096391589" x="181.640074" y="134.207996" style="fill: #a2ad00; stroke: #a2ad00"/>
     <use xlink:href="#m7096391589" x="188.204779" y="134.207996" style="fill: #a2ad00; stroke: #a2ad00"/>
     <use xlink:href="#m7096391589" x="194.769485" y="134.207996" style="fill: #a2ad00; stroke: #a2ad00"/>
     <use xlink:href="#m7096391589" x="201.334191" y="134.207996" style="fill: #a2ad00; stroke: #a2ad00"/>
     <use xlink:href="#m7096391589" x="207.898897" y="134.207996" style="fill: #a2ad00; stroke: #a2ad00"/>
     <use xlink:href="#m7096391589" x="214.463603" y="134.207996" style="fill: #a2ad00; stroke: #a2ad00"/>
     <use xlink:href="#m7096391589" x="221.028309" y="134.207995" style="fill: #a2ad00; stroke: #a2ad00"/>
     <use xlink:href="#m7096391589" x="227.593015" y="134.207995" style="fill: #a2ad00; stroke: #a2ad00"/>
     <use xlink:href="#m7096391589" x="234.157721" y="134.207995" style="fill: #a2ad00; stroke: #a2ad00"/>
     <use xlink:href="#m7096391589" x="240.722426" y="134.207995" style="fill: #a2ad00; stroke: #a2ad00"/>
     <use xlink:href="#m7096391589" x="247.287132" y="134.207994" style="fill: #a2ad00; stroke: #a2ad00"/>
     <use xlink:href="#m7096391589" x="253.851838" y="134.207994" style="fill: #a2ad00; stroke: #a2ad00"/>
     <use xlink:href="#m7096391589" x="260.416544" y="134.207994" style="fill: #a2ad00; stroke: #a2ad00"/>
     <use xlink:href="#m7096391589" x="266.98125" y="134.207993" style="fill: #a2ad00; stroke: #a2ad00"/>
     <use xlink:href="#m7096391589" x="273.545956" y="134.207993" style="fill: #a2ad00; stroke: #a2ad00"/>
     <use xlink:href="#m7096391589" x="280.110662" y="134.207992" style="fill: #a2ad00; stroke: #a2ad00"/>
     <use xlink:href="#m7096391589" x="286.675368" y="134.207992" style="fill: #a2ad00; stroke: #a2ad00"/>
     <use xlink:href="#m7096391589" x="293.240074" y="134.207991" style="fill: #a2ad00; stroke: #a2ad00"/>
     <use xlink:href="#m7096391589" x="299.804779" y="134.20799" style="fill: #a2ad00; stroke: #a2ad00"/>
     <use xlink:href="#m7096391589" x="306.369485" y="134.20799" style="fill: #a2ad00; stroke: #a2ad00"/>
     <use xlink:href="#m7096391589" x="312.934191" y="134.207988" style="fill: #a2ad00; stroke: #a2ad00"/>
     <use xlink:href="#m7096391589" x="319.498897" y="134.207987" style="fill: #a2ad00; stroke: #a2ad00"/>
     <use xlink:href="#m7096391589" x="326.063603" y="134.207985" style="fill: #a2ad00; stroke: #a2ad00"/>
     <use xlink:href="#m7096391589" x="332.628309" y="134.207983" style="fill: #a2ad00; stroke: #a2ad00"/>
     <use xlink:href="#m7096391589" x="339.193015" y="134.207979" style="fill: #a2ad00; stroke: #a2ad00"/>
     <use xlink:href="#m7096391589" x="345.757721" y="134.207976" style="fill: #a2ad00; stroke: #a2ad00"/>
     <use xlink:href="#m7096391589" x="352.322426" y="134.207966" style="fill: #a2ad00; stroke: #a2ad00"/>
     <use xlink:href="#m7096391589" x="358.887132" y="134.207968" style="fill: #a2ad00; stroke: #a2ad00"/>
     <use xlink:href="#m7096391589" x="365.451838" y="134.207884" style="fill: #a2ad00; stroke: #a2ad00"/>
     <use xlink:href="#m7096391589" x="372.016544" y="134.207924" style="fill: #a2ad00; stroke: #a2ad00"/>
    </g>
   </g>
   <g id="patch_3">
    <path d="M 43.78125 140.256 
L 43.78125 7.2 
" style="fill: none; stroke: #000000; stroke-width: 0.8; stroke-linejoin: miter; stroke-linecap: square"/>
   </g>
   <g id="patch_4">
    <path d="M 378.58125 140.256 
L 378.58125 7.2 
" style="fill: none; stroke: #000000; stroke-width: 0.8; stroke-linejoin: miter; stroke-linecap: square"/>
   </g>
   <g id="patch_5">
    <path d="M 43.78125 140.256 
L 378.58125 140.256 
" style="fill: none; stroke: #000000; stroke-width: 0.8; stroke-linejoin: miter; stroke-linecap: square"/>
   </g>
   <g id="patch_6">
    <path d="M 43.78125 7.2 
L 378.58125 7.2 
" style="fill: none; stroke: #000000; stroke-width: 0.8; stroke-linejoin: miter; stroke-linecap: square"/>
   </g>
  </g>
 </g>
 <defs>
  <clipPath id="p9864cf323d">
   <rect x="43.78125" y="7.2" width="334.8" height="133.056"/>
  </clipPath>
 </defs>
</svg>
